<mxfile host="Electron" agent="Mozilla/5.0 (Windows NT 10.0; Win64; x64) AppleWebKit/537.36 (KHTML, like Gecko) draw.io/28.0.6 Chrome/138.0.7204.100 Electron/37.2.3 Safari/537.36" version="28.0.6">
  <diagram name="หน้า-1" id="esfRYqXgOg5em3_IeIhB">
    <mxGraphModel dx="2253" dy="883" grid="1" gridSize="10" guides="1" tooltips="1" connect="1" arrows="1" fold="1" page="1" pageScale="1" pageWidth="827" pageHeight="1169" math="0" shadow="0">
      <root>
        <mxCell id="0" />
        <mxCell id="1" parent="0" />
        <mxCell id="j7GxEyaTbJRwKLb1Gbcd-5" style="edgeStyle=orthogonalEdgeStyle;rounded=0;orthogonalLoop=1;jettySize=auto;html=1;exitX=0.5;exitY=1;exitDx=0;exitDy=0;entryX=0;entryY=0.75;entryDx=0;entryDy=0;" parent="1" source="j7GxEyaTbJRwKLb1Gbcd-4" target="j7GxEyaTbJRwKLb1Gbcd-1" edge="1">
          <mxGeometry relative="1" as="geometry" />
        </mxCell>
        <mxCell id="j7GxEyaTbJRwKLb1Gbcd-4" value="" style="rounded=1;whiteSpace=wrap;html=1;strokeColor=light-dark(#e7970d, #ededed);" parent="1" vertex="1">
          <mxGeometry x="-458" y="2274" width="90" height="47" as="geometry" />
        </mxCell>
        <mxCell id="f3Wuk6wAEYRsW2atSkhv-18" style="edgeStyle=orthogonalEdgeStyle;rounded=0;orthogonalLoop=1;jettySize=auto;html=1;exitX=0.5;exitY=1;exitDx=0;exitDy=0;entryX=0;entryY=0.5;entryDx=0;entryDy=0;" parent="1" source="f3Wuk6wAEYRsW2atSkhv-16" target="f3Wuk6wAEYRsW2atSkhv-2" edge="1">
          <mxGeometry relative="1" as="geometry" />
        </mxCell>
        <mxCell id="f3Wuk6wAEYRsW2atSkhv-16" value="" style="rounded=1;whiteSpace=wrap;html=1;strokeColor=light-dark(#f40b9e, #ededed);" parent="1" vertex="1">
          <mxGeometry x="280" y="1962" width="200" height="66" as="geometry" />
        </mxCell>
        <mxCell id="f3Wuk6wAEYRsW2atSkhv-8" style="edgeStyle=orthogonalEdgeStyle;rounded=0;orthogonalLoop=1;jettySize=auto;html=1;exitX=0.5;exitY=1;exitDx=0;exitDy=0;entryX=0;entryY=0.5;entryDx=0;entryDy=0;" parent="1" source="f3Wuk6wAEYRsW2atSkhv-7" target="f3Wuk6wAEYRsW2atSkhv-1" edge="1">
          <mxGeometry relative="1" as="geometry" />
        </mxCell>
        <mxCell id="f3Wuk6wAEYRsW2atSkhv-7" value="" style="rounded=1;whiteSpace=wrap;html=1;strokeColor=light-dark(#0bf41b, #ededed);" parent="1" vertex="1">
          <mxGeometry x="-410" y="2000" width="120" height="51.5" as="geometry" />
        </mxCell>
        <mxCell id="SGwjA--hHYzTzhawaiTS-1" style="edgeStyle=orthogonalEdgeStyle;rounded=0;orthogonalLoop=1;jettySize=auto;html=1;exitX=1;exitY=0.5;exitDx=0;exitDy=0;entryX=0;entryY=0.5;entryDx=0;entryDy=0;" parent="1" source="SGwjA--hHYzTzhawaiTS-3" target="SGwjA--hHYzTzhawaiTS-7" edge="1">
          <mxGeometry relative="1" as="geometry" />
        </mxCell>
        <mxCell id="SGwjA--hHYzTzhawaiTS-2" style="edgeStyle=orthogonalEdgeStyle;rounded=0;orthogonalLoop=1;jettySize=auto;html=1;exitX=0.5;exitY=1;exitDx=0;exitDy=0;entryX=0.5;entryY=0;entryDx=0;entryDy=0;" parent="1" source="SGwjA--hHYzTzhawaiTS-3" target="SGwjA--hHYzTzhawaiTS-139" edge="1">
          <mxGeometry relative="1" as="geometry" />
        </mxCell>
        <mxCell id="SGwjA--hHYzTzhawaiTS-3" value="&lt;font style=&quot;font-size: 19px;&quot;&gt;วิเคราะห์และออกแบบระบบ&lt;/font&gt;" style="rounded=1;whiteSpace=wrap;html=1;fillColor=#fff2cc;strokeColor=#d6b656;" parent="1" vertex="1">
          <mxGeometry x="330" y="944" width="120" height="60" as="geometry" />
        </mxCell>
        <mxCell id="SGwjA--hHYzTzhawaiTS-4" style="edgeStyle=orthogonalEdgeStyle;rounded=0;orthogonalLoop=1;jettySize=auto;html=1;exitX=1;exitY=0.5;exitDx=0;exitDy=0;entryX=0;entryY=0.5;entryDx=0;entryDy=0;" parent="1" source="SGwjA--hHYzTzhawaiTS-7" target="SGwjA--hHYzTzhawaiTS-13" edge="1">
          <mxGeometry relative="1" as="geometry" />
        </mxCell>
        <mxCell id="SGwjA--hHYzTzhawaiTS-5" style="edgeStyle=orthogonalEdgeStyle;rounded=0;orthogonalLoop=1;jettySize=auto;html=1;exitX=1;exitY=0.5;exitDx=0;exitDy=0;entryX=0;entryY=0.5;entryDx=0;entryDy=0;" parent="1" source="SGwjA--hHYzTzhawaiTS-7" target="SGwjA--hHYzTzhawaiTS-45" edge="1">
          <mxGeometry relative="1" as="geometry">
            <Array as="points">
              <mxPoint x="650" y="764" />
              <mxPoint x="650" y="848" />
            </Array>
          </mxGeometry>
        </mxCell>
        <mxCell id="SGwjA--hHYzTzhawaiTS-6" style="edgeStyle=orthogonalEdgeStyle;rounded=0;orthogonalLoop=1;jettySize=auto;html=1;exitX=1;exitY=0.5;exitDx=0;exitDy=0;entryX=0;entryY=0.5;entryDx=0;entryDy=0;" parent="1" source="SGwjA--hHYzTzhawaiTS-7" target="SGwjA--hHYzTzhawaiTS-34" edge="1">
          <mxGeometry relative="1" as="geometry" />
        </mxCell>
        <mxCell id="SGwjA--hHYzTzhawaiTS-7" value="1.ระบบสารสนเทศและองค์กร" style="rounded=1;whiteSpace=wrap;html=1;fillColor=#dae8fc;strokeColor=#6c8ebf;" parent="1" vertex="1">
          <mxGeometry x="510" y="734" width="120" height="60" as="geometry" />
        </mxCell>
        <mxCell id="SGwjA--hHYzTzhawaiTS-8" style="edgeStyle=orthogonalEdgeStyle;rounded=0;orthogonalLoop=1;jettySize=auto;html=1;exitX=0.5;exitY=1;exitDx=0;exitDy=0;entryX=0.5;entryY=0;entryDx=0;entryDy=0;" parent="1" source="SGwjA--hHYzTzhawaiTS-9" target="SGwjA--hHYzTzhawaiTS-7" edge="1">
          <mxGeometry relative="1" as="geometry" />
        </mxCell>
        <mxCell id="SGwjA--hHYzTzhawaiTS-9" value="สารสนเทศ" style="rounded=1;whiteSpace=wrap;html=1;" parent="1" vertex="1">
          <mxGeometry x="590" y="689" width="60" height="30" as="geometry" />
        </mxCell>
        <mxCell id="SGwjA--hHYzTzhawaiTS-10" style="edgeStyle=orthogonalEdgeStyle;rounded=0;orthogonalLoop=1;jettySize=auto;html=1;exitX=0.5;exitY=1;exitDx=0;exitDy=0;entryX=0.5;entryY=0;entryDx=0;entryDy=0;" parent="1" source="SGwjA--hHYzTzhawaiTS-11" target="SGwjA--hHYzTzhawaiTS-7" edge="1">
          <mxGeometry relative="1" as="geometry" />
        </mxCell>
        <mxCell id="SGwjA--hHYzTzhawaiTS-11" value="ระบบ" style="rounded=1;whiteSpace=wrap;html=1;" parent="1" vertex="1">
          <mxGeometry x="510" y="689" width="60" height="30" as="geometry" />
        </mxCell>
        <mxCell id="SGwjA--hHYzTzhawaiTS-12" style="edgeStyle=orthogonalEdgeStyle;rounded=0;orthogonalLoop=1;jettySize=auto;html=1;exitX=1;exitY=0.5;exitDx=0;exitDy=0;entryX=0;entryY=0.5;entryDx=0;entryDy=0;" parent="1" source="SGwjA--hHYzTzhawaiTS-13" target="SGwjA--hHYzTzhawaiTS-19" edge="1">
          <mxGeometry relative="1" as="geometry" />
        </mxCell>
        <mxCell id="SGwjA--hHYzTzhawaiTS-13" value="ขอบเขตของระบบสารสนเทศและสิ่งแวดล้อม" style="rounded=1;whiteSpace=wrap;html=1;" parent="1" vertex="1">
          <mxGeometry x="670" y="736.5" width="110" height="55" as="geometry" />
        </mxCell>
        <mxCell id="SGwjA--hHYzTzhawaiTS-14" value="" style="group" parent="1" connectable="0" vertex="1">
          <mxGeometry x="680" y="510" width="240" height="284" as="geometry" />
        </mxCell>
        <mxCell id="SGwjA--hHYzTzhawaiTS-15" style="edgeStyle=orthogonalEdgeStyle;rounded=0;orthogonalLoop=1;jettySize=auto;html=1;exitX=1;exitY=0.5;exitDx=0;exitDy=0;entryX=0;entryY=0.5;entryDx=0;entryDy=0;" parent="SGwjA--hHYzTzhawaiTS-14" source="SGwjA--hHYzTzhawaiTS-19" target="SGwjA--hHYzTzhawaiTS-20" edge="1">
          <mxGeometry relative="1" as="geometry" />
        </mxCell>
        <mxCell id="SGwjA--hHYzTzhawaiTS-16" style="edgeStyle=orthogonalEdgeStyle;rounded=0;orthogonalLoop=1;jettySize=auto;html=1;exitX=1;exitY=0.5;exitDx=0;exitDy=0;entryX=0;entryY=0.5;entryDx=0;entryDy=0;" parent="SGwjA--hHYzTzhawaiTS-14" source="SGwjA--hHYzTzhawaiTS-19" target="SGwjA--hHYzTzhawaiTS-21" edge="1">
          <mxGeometry relative="1" as="geometry" />
        </mxCell>
        <mxCell id="SGwjA--hHYzTzhawaiTS-17" style="edgeStyle=orthogonalEdgeStyle;rounded=0;orthogonalLoop=1;jettySize=auto;html=1;exitX=1;exitY=0.5;exitDx=0;exitDy=0;entryX=0;entryY=0.5;entryDx=0;entryDy=0;" parent="SGwjA--hHYzTzhawaiTS-14" source="SGwjA--hHYzTzhawaiTS-19" target="SGwjA--hHYzTzhawaiTS-22" edge="1">
          <mxGeometry relative="1" as="geometry" />
        </mxCell>
        <mxCell id="SGwjA--hHYzTzhawaiTS-18" style="edgeStyle=orthogonalEdgeStyle;rounded=0;orthogonalLoop=1;jettySize=auto;html=1;exitX=1;exitY=0.5;exitDx=0;exitDy=0;entryX=0;entryY=0.5;entryDx=0;entryDy=0;" parent="SGwjA--hHYzTzhawaiTS-14" source="SGwjA--hHYzTzhawaiTS-19" target="SGwjA--hHYzTzhawaiTS-23" edge="1">
          <mxGeometry relative="1" as="geometry" />
        </mxCell>
        <mxCell id="SGwjA--hHYzTzhawaiTS-19" value="ลักษณะของสารสนเทศที่ดี" style="rounded=1;whiteSpace=wrap;html=1;" parent="SGwjA--hHYzTzhawaiTS-14" vertex="1">
          <mxGeometry y="112.5" width="110" height="55" as="geometry" />
        </mxCell>
        <mxCell id="SGwjA--hHYzTzhawaiTS-20" value="Accuracy" style="rounded=1;whiteSpace=wrap;html=1;" parent="SGwjA--hHYzTzhawaiTS-14" vertex="1">
          <mxGeometry x="150" width="90" height="40" as="geometry" />
        </mxCell>
        <mxCell id="SGwjA--hHYzTzhawaiTS-21" value="Completeness" style="rounded=1;whiteSpace=wrap;html=1;" parent="SGwjA--hHYzTzhawaiTS-14" vertex="1">
          <mxGeometry x="150" y="50" width="90" height="40" as="geometry" />
        </mxCell>
        <mxCell id="SGwjA--hHYzTzhawaiTS-22" value="Timelines" style="rounded=1;whiteSpace=wrap;html=1;" parent="SGwjA--hHYzTzhawaiTS-14" vertex="1">
          <mxGeometry x="150" y="95" width="90" height="40" as="geometry" />
        </mxCell>
        <mxCell id="SGwjA--hHYzTzhawaiTS-23" value="Relevance" style="rounded=1;whiteSpace=wrap;html=1;" parent="SGwjA--hHYzTzhawaiTS-14" vertex="1">
          <mxGeometry x="150" y="144" width="90" height="40" as="geometry" />
        </mxCell>
        <mxCell id="SGwjA--hHYzTzhawaiTS-24" value="Up-to-date" style="rounded=1;whiteSpace=wrap;html=1;" parent="SGwjA--hHYzTzhawaiTS-14" vertex="1">
          <mxGeometry x="150" y="194" width="90" height="40" as="geometry" />
        </mxCell>
        <mxCell id="SGwjA--hHYzTzhawaiTS-25" value="Verifiability" style="rounded=1;whiteSpace=wrap;html=1;" parent="SGwjA--hHYzTzhawaiTS-14" vertex="1">
          <mxGeometry x="150" y="244" width="90" height="40" as="geometry" />
        </mxCell>
        <mxCell id="SGwjA--hHYzTzhawaiTS-26" style="edgeStyle=orthogonalEdgeStyle;rounded=0;orthogonalLoop=1;jettySize=auto;html=1;exitX=1;exitY=0.5;exitDx=0;exitDy=0;entryX=0;entryY=0.5;entryDx=0;entryDy=0;" parent="SGwjA--hHYzTzhawaiTS-14" source="SGwjA--hHYzTzhawaiTS-19" target="SGwjA--hHYzTzhawaiTS-24" edge="1">
          <mxGeometry relative="1" as="geometry" />
        </mxCell>
        <mxCell id="SGwjA--hHYzTzhawaiTS-27" style="edgeStyle=orthogonalEdgeStyle;rounded=0;orthogonalLoop=1;jettySize=auto;html=1;exitX=1;exitY=0.5;exitDx=0;exitDy=0;entryX=0;entryY=0.5;entryDx=0;entryDy=0;" parent="SGwjA--hHYzTzhawaiTS-14" source="SGwjA--hHYzTzhawaiTS-19" target="SGwjA--hHYzTzhawaiTS-25" edge="1">
          <mxGeometry relative="1" as="geometry" />
        </mxCell>
        <mxCell id="SGwjA--hHYzTzhawaiTS-28" style="edgeStyle=orthogonalEdgeStyle;rounded=0;orthogonalLoop=1;jettySize=auto;html=1;exitX=1;exitY=0.5;exitDx=0;exitDy=0;entryX=0;entryY=0.5;entryDx=0;entryDy=0;" parent="1" source="SGwjA--hHYzTzhawaiTS-34" target="SGwjA--hHYzTzhawaiTS-37" edge="1">
          <mxGeometry relative="1" as="geometry" />
        </mxCell>
        <mxCell id="SGwjA--hHYzTzhawaiTS-29" style="edgeStyle=orthogonalEdgeStyle;rounded=0;orthogonalLoop=1;jettySize=auto;html=1;exitX=1;exitY=0.5;exitDx=0;exitDy=0;entryX=0;entryY=0.5;entryDx=0;entryDy=0;" parent="1" source="SGwjA--hHYzTzhawaiTS-34" target="SGwjA--hHYzTzhawaiTS-64" edge="1">
          <mxGeometry relative="1" as="geometry" />
        </mxCell>
        <mxCell id="SGwjA--hHYzTzhawaiTS-30" style="edgeStyle=orthogonalEdgeStyle;rounded=0;orthogonalLoop=1;jettySize=auto;html=1;exitX=1;exitY=0.5;exitDx=0;exitDy=0;entryX=0;entryY=0.5;entryDx=0;entryDy=0;" parent="1" source="SGwjA--hHYzTzhawaiTS-34" target="SGwjA--hHYzTzhawaiTS-73" edge="1">
          <mxGeometry relative="1" as="geometry" />
        </mxCell>
        <mxCell id="SGwjA--hHYzTzhawaiTS-31" style="edgeStyle=orthogonalEdgeStyle;rounded=0;orthogonalLoop=1;jettySize=auto;html=1;exitX=1;exitY=0.5;exitDx=0;exitDy=0;entryX=0;entryY=0.5;entryDx=0;entryDy=0;" parent="1" source="SGwjA--hHYzTzhawaiTS-34" target="SGwjA--hHYzTzhawaiTS-93" edge="1">
          <mxGeometry relative="1" as="geometry" />
        </mxCell>
        <mxCell id="SGwjA--hHYzTzhawaiTS-32" style="edgeStyle=orthogonalEdgeStyle;rounded=0;orthogonalLoop=1;jettySize=auto;html=1;exitX=1;exitY=0.5;exitDx=0;exitDy=0;entryX=0;entryY=0.5;entryDx=0;entryDy=0;" parent="1" source="SGwjA--hHYzTzhawaiTS-34" target="SGwjA--hHYzTzhawaiTS-112" edge="1">
          <mxGeometry relative="1" as="geometry" />
        </mxCell>
        <mxCell id="SGwjA--hHYzTzhawaiTS-33" style="edgeStyle=orthogonalEdgeStyle;rounded=0;orthogonalLoop=1;jettySize=auto;html=1;exitX=1;exitY=0.5;exitDx=0;exitDy=0;entryX=0;entryY=0.5;entryDx=0;entryDy=0;" parent="1" source="SGwjA--hHYzTzhawaiTS-34" target="SGwjA--hHYzTzhawaiTS-138" edge="1">
          <mxGeometry relative="1" as="geometry" />
        </mxCell>
        <mxCell id="SGwjA--hHYzTzhawaiTS-34" value="ประเภทของระบบสารสนเทศ" style="rounded=1;whiteSpace=wrap;html=1;" parent="1" vertex="1">
          <mxGeometry x="670" y="922" width="110" height="55" as="geometry" />
        </mxCell>
        <mxCell id="SGwjA--hHYzTzhawaiTS-35" style="edgeStyle=orthogonalEdgeStyle;rounded=0;orthogonalLoop=1;jettySize=auto;html=1;exitX=1;exitY=0.5;exitDx=0;exitDy=0;entryX=0;entryY=0.5;entryDx=0;entryDy=0;" parent="1" source="SGwjA--hHYzTzhawaiTS-37" target="SGwjA--hHYzTzhawaiTS-54" edge="1">
          <mxGeometry relative="1" as="geometry" />
        </mxCell>
        <mxCell id="SGwjA--hHYzTzhawaiTS-36" style="edgeStyle=orthogonalEdgeStyle;rounded=0;orthogonalLoop=1;jettySize=auto;html=1;exitX=0.5;exitY=1;exitDx=0;exitDy=0;entryX=0.5;entryY=0;entryDx=0;entryDy=0;" parent="1" source="SGwjA--hHYzTzhawaiTS-37" target="SGwjA--hHYzTzhawaiTS-55" edge="1">
          <mxGeometry relative="1" as="geometry" />
        </mxCell>
        <mxCell id="SGwjA--hHYzTzhawaiTS-37" value="ระบบประมวลผลสารสนเทศเชิงรายการ&lt;div&gt;(Transaction Processing System : TPS)&lt;/div&gt;" style="rounded=1;whiteSpace=wrap;html=1;" parent="1" vertex="1">
          <mxGeometry x="920" y="922" width="190" height="55" as="geometry" />
        </mxCell>
        <mxCell id="SGwjA--hHYzTzhawaiTS-38" style="edgeStyle=orthogonalEdgeStyle;rounded=0;orthogonalLoop=1;jettySize=auto;html=1;exitX=1;exitY=0.5;exitDx=0;exitDy=0;entryX=0;entryY=0.5;entryDx=0;entryDy=0;" parent="1" source="SGwjA--hHYzTzhawaiTS-45" target="SGwjA--hHYzTzhawaiTS-47" edge="1">
          <mxGeometry relative="1" as="geometry" />
        </mxCell>
        <mxCell id="SGwjA--hHYzTzhawaiTS-39" style="edgeStyle=orthogonalEdgeStyle;rounded=0;orthogonalLoop=1;jettySize=auto;html=1;exitX=1;exitY=0.5;exitDx=0;exitDy=0;entryX=0;entryY=0.5;entryDx=0;entryDy=0;" parent="1" source="SGwjA--hHYzTzhawaiTS-45" target="SGwjA--hHYzTzhawaiTS-48" edge="1">
          <mxGeometry relative="1" as="geometry" />
        </mxCell>
        <mxCell id="SGwjA--hHYzTzhawaiTS-40" style="edgeStyle=orthogonalEdgeStyle;rounded=0;orthogonalLoop=1;jettySize=auto;html=1;exitX=1;exitY=0.5;exitDx=0;exitDy=0;entryX=0;entryY=0.5;entryDx=0;entryDy=0;" parent="1" source="SGwjA--hHYzTzhawaiTS-45" target="SGwjA--hHYzTzhawaiTS-49" edge="1">
          <mxGeometry relative="1" as="geometry" />
        </mxCell>
        <mxCell id="SGwjA--hHYzTzhawaiTS-41" style="edgeStyle=orthogonalEdgeStyle;rounded=0;orthogonalLoop=1;jettySize=auto;html=1;exitX=1;exitY=0.5;exitDx=0;exitDy=0;entryX=0;entryY=0.5;entryDx=0;entryDy=0;" parent="1" source="SGwjA--hHYzTzhawaiTS-45" target="SGwjA--hHYzTzhawaiTS-50" edge="1">
          <mxGeometry relative="1" as="geometry" />
        </mxCell>
        <mxCell id="SGwjA--hHYzTzhawaiTS-42" style="edgeStyle=orthogonalEdgeStyle;rounded=0;orthogonalLoop=1;jettySize=auto;html=1;exitX=1;exitY=0.5;exitDx=0;exitDy=0;entryX=0;entryY=0.5;entryDx=0;entryDy=0;" parent="1" source="SGwjA--hHYzTzhawaiTS-45" target="SGwjA--hHYzTzhawaiTS-51" edge="1">
          <mxGeometry relative="1" as="geometry" />
        </mxCell>
        <mxCell id="SGwjA--hHYzTzhawaiTS-43" style="edgeStyle=orthogonalEdgeStyle;rounded=0;orthogonalLoop=1;jettySize=auto;html=1;exitX=1;exitY=0.5;exitDx=0;exitDy=0;entryX=0;entryY=0.5;entryDx=0;entryDy=0;" parent="1" source="SGwjA--hHYzTzhawaiTS-45" target="SGwjA--hHYzTzhawaiTS-52" edge="1">
          <mxGeometry relative="1" as="geometry" />
        </mxCell>
        <mxCell id="SGwjA--hHYzTzhawaiTS-44" style="edgeStyle=orthogonalEdgeStyle;rounded=0;orthogonalLoop=1;jettySize=auto;html=1;exitX=1;exitY=0.5;exitDx=0;exitDy=0;entryX=0;entryY=0.5;entryDx=0;entryDy=0;" parent="1" source="SGwjA--hHYzTzhawaiTS-45" target="SGwjA--hHYzTzhawaiTS-53" edge="1">
          <mxGeometry relative="1" as="geometry" />
        </mxCell>
        <mxCell id="SGwjA--hHYzTzhawaiTS-45" value="องค์ประกอบของระบบสารสนเทศที่ใช้คอมพิวเตอร์เป็นพื้นฐานการทำงาน" style="rounded=1;whiteSpace=wrap;html=1;" parent="1" vertex="1">
          <mxGeometry x="920" y="818" width="110" height="60" as="geometry" />
        </mxCell>
        <mxCell id="SGwjA--hHYzTzhawaiTS-46" value="" style="group" parent="1" connectable="0" vertex="1">
          <mxGeometry x="1070" y="614" width="140" height="240" as="geometry" />
        </mxCell>
        <mxCell id="SGwjA--hHYzTzhawaiTS-47" value="Hardwere" style="rounded=1;whiteSpace=wrap;html=1;" parent="SGwjA--hHYzTzhawaiTS-46" vertex="1">
          <mxGeometry width="60" height="26" as="geometry" />
        </mxCell>
        <mxCell id="SGwjA--hHYzTzhawaiTS-48" value="Softwere" style="rounded=1;whiteSpace=wrap;html=1;" parent="SGwjA--hHYzTzhawaiTS-46" vertex="1">
          <mxGeometry y="34" width="60" height="26" as="geometry" />
        </mxCell>
        <mxCell id="SGwjA--hHYzTzhawaiTS-49" value="Network/Communication" style="rounded=1;whiteSpace=wrap;html=1;" parent="SGwjA--hHYzTzhawaiTS-46" vertex="1">
          <mxGeometry y="70" width="140" height="26" as="geometry" />
        </mxCell>
        <mxCell id="SGwjA--hHYzTzhawaiTS-50" value="User" style="rounded=1;whiteSpace=wrap;html=1;" parent="SGwjA--hHYzTzhawaiTS-46" vertex="1">
          <mxGeometry y="110" width="60" height="26" as="geometry" />
        </mxCell>
        <mxCell id="SGwjA--hHYzTzhawaiTS-51" value="Data" style="rounded=1;whiteSpace=wrap;html=1;" parent="SGwjA--hHYzTzhawaiTS-46" vertex="1">
          <mxGeometry y="144" width="60" height="26" as="geometry" />
        </mxCell>
        <mxCell id="SGwjA--hHYzTzhawaiTS-52" value="Regulation" style="rounded=1;whiteSpace=wrap;html=1;" parent="SGwjA--hHYzTzhawaiTS-46" vertex="1">
          <mxGeometry y="180" width="60" height="26" as="geometry" />
        </mxCell>
        <mxCell id="SGwjA--hHYzTzhawaiTS-53" value="Document/Manual" style="rounded=1;whiteSpace=wrap;html=1;" parent="SGwjA--hHYzTzhawaiTS-46" vertex="1">
          <mxGeometry y="214" width="110" height="26" as="geometry" />
        </mxCell>
        <mxCell id="SGwjA--hHYzTzhawaiTS-54" value="-ขายสินค้าที่ร้านสะดวกซื้อ&lt;div&gt;-ยืมคืนหนังสือ&lt;/div&gt;&lt;div&gt;-บันทึกประวัติผู้ป่วยและผลการรักษาโรคในโรงบาล&lt;/div&gt;&lt;div&gt;-การลงทะเบียนเรียนของนิสิตผ่านเครือข่ายอินเทอร์เน็ต&lt;/div&gt;" style="rounded=1;whiteSpace=wrap;html=1;" parent="1" vertex="1">
          <mxGeometry x="1140" y="922" width="290" height="55" as="geometry" />
        </mxCell>
        <mxCell id="SGwjA--hHYzTzhawaiTS-55" value="การจัดเก็บ" style="rounded=1;whiteSpace=wrap;html=1;" parent="1" vertex="1">
          <mxGeometry x="1340" y="1020.5" width="90" height="31" as="geometry" />
        </mxCell>
        <mxCell id="SGwjA--hHYzTzhawaiTS-56" value="การจัดหมวดหมู่" style="rounded=1;whiteSpace=wrap;html=1;" parent="1" vertex="1">
          <mxGeometry x="1340" y="1051.5" width="90" height="31" as="geometry" />
        </mxCell>
        <mxCell id="SGwjA--hHYzTzhawaiTS-57" value="การคำนวณ" style="rounded=1;whiteSpace=wrap;html=1;" parent="1" vertex="1">
          <mxGeometry x="1340" y="1082.5" width="90" height="31" as="geometry" />
        </mxCell>
        <mxCell id="SGwjA--hHYzTzhawaiTS-58" value="การเรียงลำดับ" style="rounded=1;whiteSpace=wrap;html=1;" parent="1" vertex="1">
          <mxGeometry x="1340" y="1113.5" width="90" height="31" as="geometry" />
        </mxCell>
        <mxCell id="SGwjA--hHYzTzhawaiTS-59" value="การสรุปผล" style="rounded=1;whiteSpace=wrap;html=1;" parent="1" vertex="1">
          <mxGeometry x="1340" y="1144.5" width="90" height="31" as="geometry" />
        </mxCell>
        <mxCell id="SGwjA--hHYzTzhawaiTS-60" style="edgeStyle=orthogonalEdgeStyle;rounded=0;orthogonalLoop=1;jettySize=auto;html=1;exitX=1;exitY=0.5;exitDx=0;exitDy=0;entryX=0;entryY=0.5;entryDx=0;entryDy=0;" parent="1" source="SGwjA--hHYzTzhawaiTS-64" target="SGwjA--hHYzTzhawaiTS-65" edge="1">
          <mxGeometry relative="1" as="geometry" />
        </mxCell>
        <mxCell id="SGwjA--hHYzTzhawaiTS-61" style="edgeStyle=orthogonalEdgeStyle;rounded=0;orthogonalLoop=1;jettySize=auto;html=1;exitX=1;exitY=0.5;exitDx=0;exitDy=0;entryX=0;entryY=0.5;entryDx=0;entryDy=0;" parent="1" source="SGwjA--hHYzTzhawaiTS-64" target="SGwjA--hHYzTzhawaiTS-66" edge="1">
          <mxGeometry relative="1" as="geometry" />
        </mxCell>
        <mxCell id="SGwjA--hHYzTzhawaiTS-62" style="edgeStyle=orthogonalEdgeStyle;rounded=0;orthogonalLoop=1;jettySize=auto;html=1;exitX=1;exitY=0.5;exitDx=0;exitDy=0;entryX=0;entryY=0.5;entryDx=0;entryDy=0;" parent="1" source="SGwjA--hHYzTzhawaiTS-64" target="SGwjA--hHYzTzhawaiTS-67" edge="1">
          <mxGeometry relative="1" as="geometry" />
        </mxCell>
        <mxCell id="SGwjA--hHYzTzhawaiTS-63" style="edgeStyle=orthogonalEdgeStyle;rounded=0;orthogonalLoop=1;jettySize=auto;html=1;exitX=1;exitY=0.5;exitDx=0;exitDy=0;entryX=0;entryY=0.5;entryDx=0;entryDy=0;" parent="1" source="SGwjA--hHYzTzhawaiTS-64" target="SGwjA--hHYzTzhawaiTS-68" edge="1">
          <mxGeometry relative="1" as="geometry" />
        </mxCell>
        <mxCell id="SGwjA--hHYzTzhawaiTS-64" value="ระบบสารสนเทศเพื่อการจัดการ&lt;div&gt;(Management Information System : MIS)&lt;/div&gt;" style="rounded=1;whiteSpace=wrap;html=1;" parent="1" vertex="1">
          <mxGeometry x="920" y="1085" width="190" height="55" as="geometry" />
        </mxCell>
        <mxCell id="SGwjA--hHYzTzhawaiTS-65" value="รายงานที่จัดทำขึ้นตามระยะเวลาที่กำหนด&lt;div&gt;Periodic Report&lt;/div&gt;" style="rounded=1;whiteSpace=wrap;html=1;" parent="1" vertex="1">
          <mxGeometry x="1150" y="1079.5" width="170" height="66" as="geometry" />
        </mxCell>
        <mxCell id="SGwjA--hHYzTzhawaiTS-66" value="รายงานที่จัดทำขึ้นตามความต้องการใช้งาน&lt;div&gt;Demand Report/ad-hoc Report&lt;/div&gt;" style="rounded=1;whiteSpace=wrap;html=1;" parent="1" vertex="1">
          <mxGeometry x="1150" y="1149" width="170" height="66" as="geometry" />
        </mxCell>
        <mxCell id="SGwjA--hHYzTzhawaiTS-67" value="รายงานตัวชี้วัดที่สำคัญ&lt;div&gt;Key Indicator Report&lt;/div&gt;" style="rounded=1;whiteSpace=wrap;html=1;" parent="1" vertex="1">
          <mxGeometry x="1150" y="1220" width="170" height="66" as="geometry" />
        </mxCell>
        <mxCell id="SGwjA--hHYzTzhawaiTS-68" value="รายงานที่จัดทำตามเงื่อนไขเฉพาะ&lt;div&gt;Exception Report&lt;/div&gt;" style="rounded=1;whiteSpace=wrap;html=1;" parent="1" vertex="1">
          <mxGeometry x="1150" y="1294" width="170" height="66" as="geometry" />
        </mxCell>
        <mxCell id="SGwjA--hHYzTzhawaiTS-69" style="edgeStyle=orthogonalEdgeStyle;rounded=0;orthogonalLoop=1;jettySize=auto;html=1;exitX=1;exitY=0.5;exitDx=0;exitDy=0;entryX=0.5;entryY=0;entryDx=0;entryDy=0;" parent="1" source="SGwjA--hHYzTzhawaiTS-73" target="SGwjA--hHYzTzhawaiTS-81" edge="1">
          <mxGeometry relative="1" as="geometry" />
        </mxCell>
        <mxCell id="SGwjA--hHYzTzhawaiTS-70" style="edgeStyle=orthogonalEdgeStyle;rounded=0;orthogonalLoop=1;jettySize=auto;html=1;exitX=1;exitY=0.5;exitDx=0;exitDy=0;entryX=0;entryY=0.5;entryDx=0;entryDy=0;" parent="1" source="SGwjA--hHYzTzhawaiTS-73" target="SGwjA--hHYzTzhawaiTS-77" edge="1">
          <mxGeometry relative="1" as="geometry" />
        </mxCell>
        <mxCell id="SGwjA--hHYzTzhawaiTS-71" style="edgeStyle=orthogonalEdgeStyle;rounded=0;orthogonalLoop=1;jettySize=auto;html=1;exitX=1;exitY=0.5;exitDx=0;exitDy=0;entryX=0;entryY=0.5;entryDx=0;entryDy=0;" parent="1" source="SGwjA--hHYzTzhawaiTS-73" target="SGwjA--hHYzTzhawaiTS-75" edge="1">
          <mxGeometry relative="1" as="geometry" />
        </mxCell>
        <mxCell id="SGwjA--hHYzTzhawaiTS-72" style="edgeStyle=orthogonalEdgeStyle;rounded=0;orthogonalLoop=1;jettySize=auto;html=1;exitX=1;exitY=0.5;exitDx=0;exitDy=0;entryX=0;entryY=0.5;entryDx=0;entryDy=0;" parent="1" source="SGwjA--hHYzTzhawaiTS-73" target="SGwjA--hHYzTzhawaiTS-74" edge="1">
          <mxGeometry relative="1" as="geometry" />
        </mxCell>
        <mxCell id="SGwjA--hHYzTzhawaiTS-73" value="ระบบสารสนเทศเพื่อสนับสนุนการตัดสินใจ&lt;div&gt;(Decision Support System : DSS)&lt;/div&gt;" style="rounded=1;whiteSpace=wrap;html=1;" parent="1" vertex="1">
          <mxGeometry x="910" y="1360" width="190" height="55" as="geometry" />
        </mxCell>
        <mxCell id="SGwjA--hHYzTzhawaiTS-74" value="การจัดการข้อมูล&lt;div&gt;Data management&lt;/div&gt;" style="rounded=1;whiteSpace=wrap;html=1;" parent="1" vertex="1">
          <mxGeometry x="1580" y="1175.5" width="170" height="66" as="geometry" />
        </mxCell>
        <mxCell id="SGwjA--hHYzTzhawaiTS-75" value="&lt;div&gt;การติดต่อระหว่างผู้ใช้และคอมพิวเตอร์&lt;/div&gt;User interface" style="rounded=1;whiteSpace=wrap;html=1;" parent="1" vertex="1">
          <mxGeometry x="1580" y="1245" width="170" height="66" as="geometry" />
        </mxCell>
        <mxCell id="SGwjA--hHYzTzhawaiTS-76" style="edgeStyle=orthogonalEdgeStyle;rounded=0;orthogonalLoop=1;jettySize=auto;html=1;exitX=0.5;exitY=1;exitDx=0;exitDy=0;entryX=0.75;entryY=0;entryDx=0;entryDy=0;" parent="1" source="SGwjA--hHYzTzhawaiTS-77" target="SGwjA--hHYzTzhawaiTS-81" edge="1">
          <mxGeometry relative="1" as="geometry" />
        </mxCell>
        <mxCell id="SGwjA--hHYzTzhawaiTS-77" value="การจัดการแบบจำลอง&lt;div&gt;Model Management&lt;/div&gt;" style="rounded=1;whiteSpace=wrap;html=1;" parent="1" vertex="1">
          <mxGeometry x="1580" y="1316" width="170" height="66" as="geometry" />
        </mxCell>
        <mxCell id="SGwjA--hHYzTzhawaiTS-78" value="" style="edgeStyle=orthogonalEdgeStyle;rounded=0;orthogonalLoop=1;jettySize=auto;html=1;" parent="1" source="SGwjA--hHYzTzhawaiTS-81" target="SGwjA--hHYzTzhawaiTS-84" edge="1">
          <mxGeometry relative="1" as="geometry" />
        </mxCell>
        <mxCell id="SGwjA--hHYzTzhawaiTS-79" value="" style="edgeStyle=orthogonalEdgeStyle;rounded=0;orthogonalLoop=1;jettySize=auto;html=1;" parent="1" source="SGwjA--hHYzTzhawaiTS-81" target="SGwjA--hHYzTzhawaiTS-84" edge="1">
          <mxGeometry relative="1" as="geometry" />
        </mxCell>
        <mxCell id="SGwjA--hHYzTzhawaiTS-80" style="edgeStyle=orthogonalEdgeStyle;rounded=0;orthogonalLoop=1;jettySize=auto;html=1;exitX=0.5;exitY=1;exitDx=0;exitDy=0;entryX=0.5;entryY=0;entryDx=0;entryDy=0;" parent="1" source="SGwjA--hHYzTzhawaiTS-81" target="SGwjA--hHYzTzhawaiTS-86" edge="1">
          <mxGeometry relative="1" as="geometry" />
        </mxCell>
        <mxCell id="SGwjA--hHYzTzhawaiTS-81" value="มีความสามารถในการวิเคราะห์ในรูปแบบ sensitivity analysis" style="rounded=1;whiteSpace=wrap;html=1;" parent="1" vertex="1">
          <mxGeometry x="1360" y="1429.5" width="190" height="55" as="geometry" />
        </mxCell>
        <mxCell id="SGwjA--hHYzTzhawaiTS-82" value="เกิดจาก" style="text;html=1;align=center;verticalAlign=middle;whiteSpace=wrap;rounded=0;" parent="1" vertex="1">
          <mxGeometry x="1550" y="1399.5" width="60" height="30" as="geometry" />
        </mxCell>
        <mxCell id="SGwjA--hHYzTzhawaiTS-83" style="edgeStyle=orthogonalEdgeStyle;rounded=0;orthogonalLoop=1;jettySize=auto;html=1;exitX=0.5;exitY=1;exitDx=0;exitDy=0;entryX=0.5;entryY=0;entryDx=0;entryDy=0;" parent="1" source="SGwjA--hHYzTzhawaiTS-84" target="SGwjA--hHYzTzhawaiTS-90" edge="1">
          <mxGeometry relative="1" as="geometry" />
        </mxCell>
        <mxCell id="SGwjA--hHYzTzhawaiTS-84" value="What-if analysis" style="rounded=1;whiteSpace=wrap;html=1;" parent="1" vertex="1">
          <mxGeometry x="1330" y="1519.5" width="90" height="45" as="geometry" />
        </mxCell>
        <mxCell id="SGwjA--hHYzTzhawaiTS-85" style="edgeStyle=orthogonalEdgeStyle;rounded=0;orthogonalLoop=1;jettySize=auto;html=1;exitX=0.5;exitY=1;exitDx=0;exitDy=0;entryX=0.5;entryY=0;entryDx=0;entryDy=0;" parent="1" source="SGwjA--hHYzTzhawaiTS-86" target="SGwjA--hHYzTzhawaiTS-91" edge="1">
          <mxGeometry relative="1" as="geometry" />
        </mxCell>
        <mxCell id="SGwjA--hHYzTzhawaiTS-86" value="Goal-seeking analysis" style="rounded=1;whiteSpace=wrap;html=1;" parent="1" vertex="1">
          <mxGeometry x="1470" y="1519.5" width="90" height="45" as="geometry" />
        </mxCell>
        <mxCell id="SGwjA--hHYzTzhawaiTS-87" style="edgeStyle=orthogonalEdgeStyle;rounded=0;orthogonalLoop=1;jettySize=auto;html=1;exitX=0.5;exitY=0;exitDx=0;exitDy=0;entryX=0.75;entryY=1;entryDx=0;entryDy=0;" parent="1" source="SGwjA--hHYzTzhawaiTS-88" target="SGwjA--hHYzTzhawaiTS-77" edge="1">
          <mxGeometry relative="1" as="geometry" />
        </mxCell>
        <mxCell id="SGwjA--hHYzTzhawaiTS-88" value="ปัจจัย" style="rounded=1;whiteSpace=wrap;html=1;" parent="1" vertex="1">
          <mxGeometry x="1660" y="1479.5" width="70" height="55" as="geometry" />
        </mxCell>
        <mxCell id="SGwjA--hHYzTzhawaiTS-89" style="edgeStyle=orthogonalEdgeStyle;rounded=0;orthogonalLoop=1;jettySize=auto;html=1;exitX=0;exitY=0.25;exitDx=0;exitDy=0;entryX=0.987;entryY=0.512;entryDx=0;entryDy=0;entryPerimeter=0;" parent="1" source="SGwjA--hHYzTzhawaiTS-88" target="SGwjA--hHYzTzhawaiTS-81" edge="1">
          <mxGeometry relative="1" as="geometry" />
        </mxCell>
        <mxCell id="SGwjA--hHYzTzhawaiTS-90" value="เหตุ -&amp;gt; ผล" style="rounded=1;whiteSpace=wrap;html=1;" parent="1" vertex="1">
          <mxGeometry x="1330" y="1589.5" width="90" height="45" as="geometry" />
        </mxCell>
        <mxCell id="SGwjA--hHYzTzhawaiTS-91" value="เหตุ &amp;lt;- ผล" style="rounded=1;whiteSpace=wrap;html=1;" parent="1" vertex="1">
          <mxGeometry x="1470" y="1589.5" width="90" height="45" as="geometry" />
        </mxCell>
        <mxCell id="SGwjA--hHYzTzhawaiTS-92" value="" style="edgeStyle=orthogonalEdgeStyle;rounded=0;orthogonalLoop=1;jettySize=auto;html=1;" parent="1" source="SGwjA--hHYzTzhawaiTS-93" target="SGwjA--hHYzTzhawaiTS-104" edge="1">
          <mxGeometry relative="1" as="geometry" />
        </mxCell>
        <mxCell id="SGwjA--hHYzTzhawaiTS-93" value="ระบบสารสนเทศสำหรับผู้บริหาร&lt;div&gt;(Executive Information System: EIS)&lt;/div&gt;" style="rounded=1;whiteSpace=wrap;html=1;" parent="1" vertex="1">
          <mxGeometry x="910" y="1654" width="190" height="55" as="geometry" />
        </mxCell>
        <mxCell id="SGwjA--hHYzTzhawaiTS-94" style="edgeStyle=orthogonalEdgeStyle;rounded=0;orthogonalLoop=1;jettySize=auto;html=1;exitX=0.5;exitY=1;exitDx=0;exitDy=0;entryX=0.5;entryY=0;entryDx=0;entryDy=0;" parent="1" source="SGwjA--hHYzTzhawaiTS-95" target="SGwjA--hHYzTzhawaiTS-93" edge="1">
          <mxGeometry relative="1" as="geometry" />
        </mxCell>
        <mxCell id="SGwjA--hHYzTzhawaiTS-95" value="TPS" style="rounded=1;whiteSpace=wrap;html=1;" parent="1" vertex="1">
          <mxGeometry x="930" y="1549.5" width="50" height="40" as="geometry" />
        </mxCell>
        <mxCell id="SGwjA--hHYzTzhawaiTS-96" style="edgeStyle=orthogonalEdgeStyle;rounded=0;orthogonalLoop=1;jettySize=auto;html=1;exitX=0.5;exitY=1;exitDx=0;exitDy=0;entryX=0.5;entryY=0;entryDx=0;entryDy=0;" parent="1" source="SGwjA--hHYzTzhawaiTS-97" target="SGwjA--hHYzTzhawaiTS-93" edge="1">
          <mxGeometry relative="1" as="geometry" />
        </mxCell>
        <mxCell id="SGwjA--hHYzTzhawaiTS-97" value="MIS" style="rounded=1;whiteSpace=wrap;html=1;" parent="1" vertex="1">
          <mxGeometry x="1000" y="1549.5" width="50" height="40" as="geometry" />
        </mxCell>
        <mxCell id="SGwjA--hHYzTzhawaiTS-98" style="edgeStyle=orthogonalEdgeStyle;rounded=0;orthogonalLoop=1;jettySize=auto;html=1;exitX=0.5;exitY=1;exitDx=0;exitDy=0;entryX=0.5;entryY=0;entryDx=0;entryDy=0;" parent="1" source="SGwjA--hHYzTzhawaiTS-99" target="SGwjA--hHYzTzhawaiTS-93" edge="1">
          <mxGeometry relative="1" as="geometry" />
        </mxCell>
        <mxCell id="SGwjA--hHYzTzhawaiTS-99" value="DSS" style="rounded=1;whiteSpace=wrap;html=1;" parent="1" vertex="1">
          <mxGeometry x="1070" y="1549.5" width="50" height="40" as="geometry" />
        </mxCell>
        <mxCell id="SGwjA--hHYzTzhawaiTS-100" value="" style="edgeStyle=orthogonalEdgeStyle;rounded=0;orthogonalLoop=1;jettySize=auto;html=1;" parent="1" source="SGwjA--hHYzTzhawaiTS-104" target="SGwjA--hHYzTzhawaiTS-105" edge="1">
          <mxGeometry relative="1" as="geometry" />
        </mxCell>
        <mxCell id="SGwjA--hHYzTzhawaiTS-101" style="edgeStyle=orthogonalEdgeStyle;rounded=0;orthogonalLoop=1;jettySize=auto;html=1;exitX=1;exitY=0.5;exitDx=0;exitDy=0;entryX=0;entryY=0.5;entryDx=0;entryDy=0;" parent="1" source="SGwjA--hHYzTzhawaiTS-104" target="SGwjA--hHYzTzhawaiTS-106" edge="1">
          <mxGeometry relative="1" as="geometry" />
        </mxCell>
        <mxCell id="SGwjA--hHYzTzhawaiTS-102" style="edgeStyle=orthogonalEdgeStyle;rounded=0;orthogonalLoop=1;jettySize=auto;html=1;exitX=1;exitY=0.5;exitDx=0;exitDy=0;entryX=0;entryY=0.5;entryDx=0;entryDy=0;" parent="1" source="SGwjA--hHYzTzhawaiTS-104" target="SGwjA--hHYzTzhawaiTS-107" edge="1">
          <mxGeometry relative="1" as="geometry" />
        </mxCell>
        <mxCell id="SGwjA--hHYzTzhawaiTS-103" style="edgeStyle=orthogonalEdgeStyle;rounded=0;orthogonalLoop=1;jettySize=auto;html=1;exitX=1;exitY=0.5;exitDx=0;exitDy=0;entryX=0;entryY=0.5;entryDx=0;entryDy=0;" parent="1" source="SGwjA--hHYzTzhawaiTS-104" target="SGwjA--hHYzTzhawaiTS-108" edge="1">
          <mxGeometry relative="1" as="geometry" />
        </mxCell>
        <mxCell id="SGwjA--hHYzTzhawaiTS-104" value="คุณลักษณะที่สำคัญ" style="rounded=1;whiteSpace=wrap;html=1;" parent="1" vertex="1">
          <mxGeometry x="1190" y="1651.5" width="100" height="60" as="geometry" />
        </mxCell>
        <mxCell id="SGwjA--hHYzTzhawaiTS-105" value="สนับสนุนการตัดสินใจเชิงกลยุทธ์&lt;div&gt;strategic planning support&lt;/div&gt;" style="rounded=1;whiteSpace=wrap;html=1;" parent="1" vertex="1">
          <mxGeometry x="1360" y="1651.5" width="160" height="60" as="geometry" />
        </mxCell>
        <mxCell id="SGwjA--hHYzTzhawaiTS-106" value="สามารถเชื่อมโยงกับสิ่งแวดล้อมภายนอกองค์กร&lt;div&gt;external environment focus&lt;/div&gt;" style="rounded=1;whiteSpace=wrap;html=1;" parent="1" vertex="1">
          <mxGeometry x="1360" y="1729" width="160" height="60" as="geometry" />
        </mxCell>
        <mxCell id="SGwjA--hHYzTzhawaiTS-107" value="สามารถคำนวณผลในภาพรวมได้&lt;div&gt;broad-based computing capabilities&lt;/div&gt;" style="rounded=1;whiteSpace=wrap;html=1;" parent="1" vertex="1">
          <mxGeometry x="1360" y="1807" width="160" height="60" as="geometry" />
        </mxCell>
        <mxCell id="SGwjA--hHYzTzhawaiTS-108" value="สามารถใช้งานได้ง่าย&lt;div&gt;ease to use&lt;/div&gt;" style="rounded=1;whiteSpace=wrap;html=1;" parent="1" vertex="1">
          <mxGeometry x="1360" y="1884" width="160" height="60" as="geometry" />
        </mxCell>
        <mxCell id="SGwjA--hHYzTzhawaiTS-109" value="" style="edgeStyle=orthogonalEdgeStyle;rounded=0;orthogonalLoop=1;jettySize=auto;html=1;" parent="1" source="SGwjA--hHYzTzhawaiTS-112" target="SGwjA--hHYzTzhawaiTS-113" edge="1">
          <mxGeometry relative="1" as="geometry" />
        </mxCell>
        <mxCell id="SGwjA--hHYzTzhawaiTS-110" style="edgeStyle=orthogonalEdgeStyle;rounded=0;orthogonalLoop=1;jettySize=auto;html=1;exitX=1;exitY=0.5;exitDx=0;exitDy=0;entryX=0;entryY=0.5;entryDx=0;entryDy=0;" parent="1" source="SGwjA--hHYzTzhawaiTS-112" target="SGwjA--hHYzTzhawaiTS-118" edge="1">
          <mxGeometry relative="1" as="geometry" />
        </mxCell>
        <mxCell id="SGwjA--hHYzTzhawaiTS-111" style="edgeStyle=orthogonalEdgeStyle;rounded=0;orthogonalLoop=1;jettySize=auto;html=1;exitX=1;exitY=0.5;exitDx=0;exitDy=0;entryX=0;entryY=0.5;entryDx=0;entryDy=0;" parent="1" source="SGwjA--hHYzTzhawaiTS-112" target="SGwjA--hHYzTzhawaiTS-132" edge="1">
          <mxGeometry relative="1" as="geometry" />
        </mxCell>
        <mxCell id="SGwjA--hHYzTzhawaiTS-112" value="ระบบสำนักงานอัตโนมัติ&lt;div&gt;(Office Automation System: OAS)&lt;/div&gt;" style="rounded=1;whiteSpace=wrap;html=1;" parent="1" vertex="1">
          <mxGeometry x="910" y="1944" width="190" height="55" as="geometry" />
        </mxCell>
        <mxCell id="SGwjA--hHYzTzhawaiTS-113" value="สนับสนุนการปฏิบัติงานในองค์กร&lt;div&gt;(การผลิตเอกสาร สื่อสารภายใน รวบรวมข้อมูล)&lt;/div&gt;" style="rounded=1;whiteSpace=wrap;html=1;" parent="1" vertex="1">
          <mxGeometry x="1180" y="1999" width="190" height="55" as="geometry" />
        </mxCell>
        <mxCell id="SGwjA--hHYzTzhawaiTS-114" style="edgeStyle=orthogonalEdgeStyle;rounded=0;orthogonalLoop=1;jettySize=auto;html=1;exitX=1;exitY=0.5;exitDx=0;exitDy=0;entryX=0;entryY=0.5;entryDx=0;entryDy=0;" parent="1" source="SGwjA--hHYzTzhawaiTS-118" target="SGwjA--hHYzTzhawaiTS-127" edge="1">
          <mxGeometry relative="1" as="geometry" />
        </mxCell>
        <mxCell id="SGwjA--hHYzTzhawaiTS-115" style="edgeStyle=orthogonalEdgeStyle;rounded=0;orthogonalLoop=1;jettySize=auto;html=1;exitX=1;exitY=0.5;exitDx=0;exitDy=0;entryX=0;entryY=0.5;entryDx=0;entryDy=0;" parent="1" source="SGwjA--hHYzTzhawaiTS-118" target="SGwjA--hHYzTzhawaiTS-128" edge="1">
          <mxGeometry relative="1" as="geometry">
            <Array as="points">
              <mxPoint x="1250" y="2164" />
              <mxPoint x="1250" y="2234" />
            </Array>
          </mxGeometry>
        </mxCell>
        <mxCell id="SGwjA--hHYzTzhawaiTS-116" style="edgeStyle=orthogonalEdgeStyle;rounded=0;orthogonalLoop=1;jettySize=auto;html=1;exitX=1;exitY=0.5;exitDx=0;exitDy=0;entryX=0;entryY=0.5;entryDx=0;entryDy=0;" parent="1" source="SGwjA--hHYzTzhawaiTS-118" target="SGwjA--hHYzTzhawaiTS-129" edge="1">
          <mxGeometry relative="1" as="geometry">
            <Array as="points">
              <mxPoint x="1250" y="2164" />
              <mxPoint x="1250" y="2304" />
            </Array>
          </mxGeometry>
        </mxCell>
        <mxCell id="SGwjA--hHYzTzhawaiTS-117" style="edgeStyle=orthogonalEdgeStyle;rounded=0;orthogonalLoop=1;jettySize=auto;html=1;exitX=1;exitY=0.5;exitDx=0;exitDy=0;entryX=0;entryY=0.5;entryDx=0;entryDy=0;" parent="1" source="SGwjA--hHYzTzhawaiTS-118" target="SGwjA--hHYzTzhawaiTS-130" edge="1">
          <mxGeometry relative="1" as="geometry">
            <Array as="points">
              <mxPoint x="1250" y="2164" />
              <mxPoint x="1250" y="2374" />
            </Array>
          </mxGeometry>
        </mxCell>
        <mxCell id="SGwjA--hHYzTzhawaiTS-118" value="คุณลักษณะที่สำคัญ" style="rounded=1;whiteSpace=wrap;html=1;" parent="1" vertex="1">
          <mxGeometry x="1140" y="2134" width="100" height="60" as="geometry" />
        </mxCell>
        <mxCell id="SGwjA--hHYzTzhawaiTS-119" value="" style="group" parent="1" connectable="0" vertex="1">
          <mxGeometry x="1440" y="1984" width="310" height="270" as="geometry" />
        </mxCell>
        <mxCell id="SGwjA--hHYzTzhawaiTS-120" value="OAS" style="ellipse;whiteSpace=wrap;html=1;aspect=fixed;" parent="SGwjA--hHYzTzhawaiTS-119" vertex="1">
          <mxGeometry x="115" y="70" width="80" height="80" as="geometry" />
        </mxCell>
        <mxCell id="SGwjA--hHYzTzhawaiTS-121" style="edgeStyle=orthogonalEdgeStyle;rounded=0;orthogonalLoop=1;jettySize=auto;html=1;exitX=0.5;exitY=1;exitDx=0;exitDy=0;entryX=1;entryY=0.5;entryDx=0;entryDy=0;startArrow=classic;startFill=1;" parent="SGwjA--hHYzTzhawaiTS-119" source="SGwjA--hHYzTzhawaiTS-122" target="SGwjA--hHYzTzhawaiTS-120" edge="1">
          <mxGeometry relative="1" as="geometry" />
        </mxCell>
        <mxCell id="SGwjA--hHYzTzhawaiTS-122" value="ผู้ที่มีส่วนเกี่ยวข้อง" style="ellipse;whiteSpace=wrap;html=1;aspect=fixed;" parent="SGwjA--hHYzTzhawaiTS-119" vertex="1">
          <mxGeometry x="230" width="80" height="80" as="geometry" />
        </mxCell>
        <mxCell id="SGwjA--hHYzTzhawaiTS-123" style="edgeStyle=orthogonalEdgeStyle;rounded=0;orthogonalLoop=1;jettySize=auto;html=1;exitX=0.5;exitY=1;exitDx=0;exitDy=0;entryX=0;entryY=0.5;entryDx=0;entryDy=0;startArrow=classic;startFill=1;" parent="SGwjA--hHYzTzhawaiTS-119" source="SGwjA--hHYzTzhawaiTS-124" target="SGwjA--hHYzTzhawaiTS-120" edge="1">
          <mxGeometry relative="1" as="geometry" />
        </mxCell>
        <mxCell id="SGwjA--hHYzTzhawaiTS-124" value="ลูกค้า" style="ellipse;whiteSpace=wrap;html=1;aspect=fixed;" parent="SGwjA--hHYzTzhawaiTS-119" vertex="1">
          <mxGeometry width="80" height="80" as="geometry" />
        </mxCell>
        <mxCell id="SGwjA--hHYzTzhawaiTS-125" style="edgeStyle=orthogonalEdgeStyle;rounded=0;orthogonalLoop=1;jettySize=auto;html=1;exitX=0.5;exitY=0;exitDx=0;exitDy=0;entryX=0.5;entryY=1;entryDx=0;entryDy=0;startArrow=classic;startFill=1;" parent="SGwjA--hHYzTzhawaiTS-119" source="SGwjA--hHYzTzhawaiTS-126" target="SGwjA--hHYzTzhawaiTS-120" edge="1">
          <mxGeometry relative="1" as="geometry" />
        </mxCell>
        <mxCell id="SGwjA--hHYzTzhawaiTS-126" value="สมาชิก" style="ellipse;whiteSpace=wrap;html=1;aspect=fixed;" parent="SGwjA--hHYzTzhawaiTS-119" vertex="1">
          <mxGeometry x="115" y="190" width="80" height="80" as="geometry" />
        </mxCell>
        <mxCell id="SGwjA--hHYzTzhawaiTS-127" value="ระบบจัดการด้านเอกสาร&lt;div&gt;document management system&lt;/div&gt;" style="rounded=1;whiteSpace=wrap;html=1;" parent="1" vertex="1">
          <mxGeometry x="1270" y="2134" width="170" height="60" as="geometry" />
        </mxCell>
        <mxCell id="SGwjA--hHYzTzhawaiTS-128" value="ระบบรับ-ส่งข่าวสาร&lt;div&gt;Message-handling system&lt;/div&gt;" style="rounded=1;whiteSpace=wrap;html=1;" parent="1" vertex="1">
          <mxGeometry x="1270" y="2204" width="170" height="60" as="geometry" />
        </mxCell>
        <mxCell id="SGwjA--hHYzTzhawaiTS-129" value="ระบบประชุมทางไกล&lt;div&gt;Teleconferencing System&lt;/div&gt;" style="rounded=1;whiteSpace=wrap;html=1;" parent="1" vertex="1">
          <mxGeometry x="1270" y="2274" width="170" height="60" as="geometry" />
        </mxCell>
        <mxCell id="SGwjA--hHYzTzhawaiTS-130" value="ระบบสนับสนุนงานสำนักงาน&lt;div&gt;office support system&lt;/div&gt;" style="rounded=1;whiteSpace=wrap;html=1;" parent="1" vertex="1">
          <mxGeometry x="1270" y="2344" width="170" height="60" as="geometry" />
        </mxCell>
        <mxCell id="SGwjA--hHYzTzhawaiTS-131" style="edgeStyle=orthogonalEdgeStyle;rounded=0;orthogonalLoop=1;jettySize=auto;html=1;exitX=1;exitY=0.5;exitDx=0;exitDy=0;entryX=0;entryY=0.5;entryDx=0;entryDy=0;" parent="1" source="SGwjA--hHYzTzhawaiTS-132" target="SGwjA--hHYzTzhawaiTS-133" edge="1">
          <mxGeometry relative="1" as="geometry" />
        </mxCell>
        <mxCell id="SGwjA--hHYzTzhawaiTS-132" value="ประโยชน์" style="rounded=1;whiteSpace=wrap;html=1;" parent="1" vertex="1">
          <mxGeometry x="1150" y="2414" width="100" height="60" as="geometry" />
        </mxCell>
        <mxCell id="SGwjA--hHYzTzhawaiTS-133" value="ประหยัดค่าใช้จ่าย" style="rounded=1;whiteSpace=wrap;html=1;" parent="1" vertex="1">
          <mxGeometry x="1270" y="2414" width="100" height="60" as="geometry" />
        </mxCell>
        <mxCell id="SGwjA--hHYzTzhawaiTS-134" value="เพิ่มประสิทธิภาพในสำนักงาน" style="rounded=1;whiteSpace=wrap;html=1;" parent="1" vertex="1">
          <mxGeometry x="1270" y="2474" width="100" height="60" as="geometry" />
        </mxCell>
        <mxCell id="SGwjA--hHYzTzhawaiTS-135" value="ผู้บริหารสามารถตัดสินใจได้ถูกต้อง รวดเร็วขึ้น" style="rounded=1;whiteSpace=wrap;html=1;" parent="1" vertex="1">
          <mxGeometry x="1270" y="2534" width="100" height="60" as="geometry" />
        </mxCell>
        <mxCell id="SGwjA--hHYzTzhawaiTS-136" value="บุคลากรมีความภาคภูมิใจในองค์กรมากขึ้น" style="rounded=1;whiteSpace=wrap;html=1;" parent="1" vertex="1">
          <mxGeometry x="1270" y="2594" width="100" height="60" as="geometry" />
        </mxCell>
        <mxCell id="SGwjA--hHYzTzhawaiTS-137" value="องค์กรมีภาพลักษณ์ที่ดีสำหรับหน่วยงานภายนอก" style="rounded=1;whiteSpace=wrap;html=1;" parent="1" vertex="1">
          <mxGeometry x="1270" y="2654" width="100" height="60" as="geometry" />
        </mxCell>
        <mxCell id="SGwjA--hHYzTzhawaiTS-138" value="ระบบจัดการความรู้&lt;div&gt;Knowledge Management System&lt;/div&gt;" style="rounded=1;whiteSpace=wrap;html=1;" parent="1" vertex="1">
          <mxGeometry x="910" y="2714" width="190" height="55" as="geometry" />
        </mxCell>
        <mxCell id="SGwjA--hHYzTzhawaiTS-141" value="" style="edgeStyle=orthogonalEdgeStyle;rounded=0;orthogonalLoop=1;jettySize=auto;html=1;" parent="1" source="SGwjA--hHYzTzhawaiTS-139" target="SGwjA--hHYzTzhawaiTS-140" edge="1">
          <mxGeometry relative="1" as="geometry" />
        </mxCell>
        <mxCell id="ZdGnZdtOvi5KGKDc9JCi-3" value="" style="edgeStyle=orthogonalEdgeStyle;rounded=0;orthogonalLoop=1;jettySize=auto;html=1;" parent="1" source="SGwjA--hHYzTzhawaiTS-139" target="ZdGnZdtOvi5KGKDc9JCi-2" edge="1">
          <mxGeometry relative="1" as="geometry" />
        </mxCell>
        <mxCell id="SGwjA--hHYzTzhawaiTS-139" value="2.หลักการพื้นฐานและแนวคิดเชิงวัตถุ" style="rounded=1;whiteSpace=wrap;html=1;fillColor=#dae8fc;strokeColor=#6c8ebf;" parent="1" vertex="1">
          <mxGeometry x="330" y="1044" width="120" height="60" as="geometry" />
        </mxCell>
        <mxCell id="m4aQLzx4oQcD6dvQE4cs-1" style="edgeStyle=orthogonalEdgeStyle;rounded=0;orthogonalLoop=1;jettySize=auto;html=1;exitX=0.5;exitY=1;exitDx=0;exitDy=0;" parent="1" source="SGwjA--hHYzTzhawaiTS-140" edge="1">
          <mxGeometry relative="1" as="geometry">
            <mxPoint x="580" y="1170" as="targetPoint" />
          </mxGeometry>
        </mxCell>
        <mxCell id="SGwjA--hHYzTzhawaiTS-140" value="" style="whiteSpace=wrap;html=1;fillColor=#dae8fc;strokeColor=#6c8ebf;rounded=1;" parent="1" vertex="1">
          <mxGeometry x="520" y="1044" width="120" height="60" as="geometry" />
        </mxCell>
        <mxCell id="SGwjA--hHYzTzhawaiTS-167" value="" style="edgeStyle=orthogonalEdgeStyle;rounded=0;orthogonalLoop=1;jettySize=auto;html=1;" parent="1" source="SGwjA--hHYzTzhawaiTS-143" edge="1">
          <mxGeometry relative="1" as="geometry">
            <mxPoint x="690" y="1074" as="targetPoint" />
          </mxGeometry>
        </mxCell>
        <mxCell id="SGwjA--hHYzTzhawaiTS-143" value="การเขียนโปรเเกรมเชิงโครงสร้าง" style="text;html=1;align=center;verticalAlign=middle;whiteSpace=wrap;rounded=0;" parent="1" vertex="1">
          <mxGeometry x="525" y="1059" width="110" height="30" as="geometry" />
        </mxCell>
        <mxCell id="SGwjA--hHYzTzhawaiTS-169" value="" style="rounded=1;whiteSpace=wrap;html=1;fillColor=#dae8fc;strokeColor=#6c8ebf;" parent="1" vertex="1">
          <mxGeometry x="690" y="1044" width="120" height="60" as="geometry" />
        </mxCell>
        <mxCell id="SGwjA--hHYzTzhawaiTS-168" value="เป็นการเขียนโปรแกรมมองกระบวรการ I-P-O ตามรูปดังกล่าว" style="text;html=1;align=center;verticalAlign=middle;whiteSpace=wrap;rounded=0;" parent="1" vertex="1">
          <mxGeometry x="685" y="1059" width="130" height="30" as="geometry" />
        </mxCell>
        <mxCell id="B5kogLpXedkELQ5c-NoK-95" style="edgeStyle=orthogonalEdgeStyle;rounded=0;orthogonalLoop=1;jettySize=auto;html=1;exitX=0.5;exitY=1;exitDx=0;exitDy=0;" parent="1" source="ZdGnZdtOvi5KGKDc9JCi-2" edge="1">
          <mxGeometry relative="1" as="geometry">
            <mxPoint x="80" y="1150" as="targetPoint" />
          </mxGeometry>
        </mxCell>
        <mxCell id="ZdGnZdtOvi5KGKDc9JCi-2" value="" style="whiteSpace=wrap;html=1;fillColor=#dae8fc;strokeColor=#6c8ebf;rounded=1;" parent="1" vertex="1">
          <mxGeometry x="130" y="1044" width="120" height="60" as="geometry" />
        </mxCell>
        <mxCell id="ZdGnZdtOvi5KGKDc9JCi-4" value="การเขียนโปรแกรมเชิงวัตถุ" style="text;html=1;align=center;verticalAlign=middle;whiteSpace=wrap;rounded=0;" parent="1" vertex="1">
          <mxGeometry x="135" y="1059" width="110" height="30" as="geometry" />
        </mxCell>
        <mxCell id="B5kogLpXedkELQ5c-NoK-29" value="" style="group;strokeColor=default;" parent="1" vertex="1" connectable="0">
          <mxGeometry x="430" y="1175.5" width="360" height="229" as="geometry" />
        </mxCell>
        <mxCell id="B5kogLpXedkELQ5c-NoK-14" style="edgeStyle=orthogonalEdgeStyle;rounded=0;orthogonalLoop=1;jettySize=auto;html=1;exitX=0.75;exitY=1;exitDx=0;exitDy=0;" parent="B5kogLpXedkELQ5c-NoK-29" source="B5kogLpXedkELQ5c-NoK-1" edge="1">
          <mxGeometry relative="1" as="geometry">
            <mxPoint x="215" y="173.79464285714286" as="targetPoint" />
          </mxGeometry>
        </mxCell>
        <mxCell id="B5kogLpXedkELQ5c-NoK-21" style="edgeStyle=orthogonalEdgeStyle;rounded=0;orthogonalLoop=1;jettySize=auto;html=1;exitX=1;exitY=0.25;exitDx=0;exitDy=0;" parent="B5kogLpXedkELQ5c-NoK-29" source="B5kogLpXedkELQ5c-NoK-1" edge="1">
          <mxGeometry relative="1" as="geometry">
            <mxPoint x="290" y="35.78125" as="targetPoint" />
          </mxGeometry>
        </mxCell>
        <mxCell id="B5kogLpXedkELQ5c-NoK-22" style="edgeStyle=orthogonalEdgeStyle;rounded=0;orthogonalLoop=1;jettySize=auto;html=1;exitX=1;exitY=0.5;exitDx=0;exitDy=0;" parent="B5kogLpXedkELQ5c-NoK-29" source="B5kogLpXedkELQ5c-NoK-1" edge="1">
          <mxGeometry relative="1" as="geometry">
            <mxPoint x="290" y="71.5625" as="targetPoint" />
          </mxGeometry>
        </mxCell>
        <mxCell id="B5kogLpXedkELQ5c-NoK-1" value="" style="whiteSpace=wrap;html=1;aspect=fixed;fillColor=#dae8fc;strokeColor=light-dark(#9d13e7, #5c79a3);" parent="B5kogLpXedkELQ5c-NoK-29" vertex="1">
          <mxGeometry x="110" width="140" height="140" as="geometry" />
        </mxCell>
        <mxCell id="B5kogLpXedkELQ5c-NoK-2" value="" style="ellipse;whiteSpace=wrap;html=1;aspect=fixed;fillColor=#fff2cc;strokeColor=light-dark(#eb0f0f, #6d5100);" parent="B5kogLpXedkELQ5c-NoK-29" vertex="1">
          <mxGeometry x="130" y="40.892857142857146" width="40" height="40" as="geometry" />
        </mxCell>
        <mxCell id="B5kogLpXedkELQ5c-NoK-3" value="" style="ellipse;whiteSpace=wrap;html=1;aspect=fixed;fillColor=#fff2cc;strokeColor=light-dark(#eb0f0f, #6d5100);" parent="B5kogLpXedkELQ5c-NoK-29" vertex="1">
          <mxGeometry x="190" y="40.892857142857146" width="40" height="40" as="geometry" />
        </mxCell>
        <mxCell id="B5kogLpXedkELQ5c-NoK-4" value="" style="ellipse;whiteSpace=wrap;html=1;aspect=fixed;fillColor=#fff2cc;strokeColor=light-dark(#eb0f0f, #6d5100);" parent="B5kogLpXedkELQ5c-NoK-29" vertex="1">
          <mxGeometry x="130" y="95.07589285714286" width="40" height="40" as="geometry" />
        </mxCell>
        <mxCell id="B5kogLpXedkELQ5c-NoK-5" value="" style="ellipse;whiteSpace=wrap;html=1;aspect=fixed;fillColor=#fff2cc;strokeColor=light-dark(#eb0f0f, #6d5100);" parent="B5kogLpXedkELQ5c-NoK-29" vertex="1">
          <mxGeometry x="190" y="95.07589285714286" width="40" height="40" as="geometry" />
        </mxCell>
        <mxCell id="B5kogLpXedkELQ5c-NoK-6" value="&lt;b&gt;Process&lt;/b&gt;" style="text;html=1;align=center;verticalAlign=middle;whiteSpace=wrap;rounded=0;" parent="B5kogLpXedkELQ5c-NoK-29" vertex="1">
          <mxGeometry x="150" y="5.622767857142858" width="60" height="30.669642857142858" as="geometry" />
        </mxCell>
        <mxCell id="B5kogLpXedkELQ5c-NoK-7" value="&lt;b&gt;&lt;font style=&quot;font-size: 14px;&quot;&gt;P1&lt;/font&gt;&lt;/b&gt;" style="text;html=1;align=center;verticalAlign=middle;whiteSpace=wrap;rounded=0;" parent="B5kogLpXedkELQ5c-NoK-29" vertex="1">
          <mxGeometry x="120" y="46.004464285714285" width="60" height="30.669642857142858" as="geometry" />
        </mxCell>
        <mxCell id="B5kogLpXedkELQ5c-NoK-8" value="&lt;b&gt;&lt;font style=&quot;font-size: 14px;&quot;&gt;P2&lt;/font&gt;&lt;/b&gt;" style="text;html=1;align=center;verticalAlign=middle;whiteSpace=wrap;rounded=0;" parent="B5kogLpXedkELQ5c-NoK-29" vertex="1">
          <mxGeometry x="180" y="46.004464285714285" width="60" height="30.669642857142858" as="geometry" />
        </mxCell>
        <mxCell id="B5kogLpXedkELQ5c-NoK-9" value="&lt;b&gt;&lt;font style=&quot;font-size: 14px;&quot;&gt;Pn&lt;/font&gt;&lt;/b&gt;" style="text;html=1;align=center;verticalAlign=middle;whiteSpace=wrap;rounded=0;" parent="B5kogLpXedkELQ5c-NoK-29" vertex="1">
          <mxGeometry x="180" y="100.1875" width="60" height="30.669642857142858" as="geometry" />
        </mxCell>
        <mxCell id="B5kogLpXedkELQ5c-NoK-11" value="&lt;b&gt;&lt;font style=&quot;font-size: 14px;&quot;&gt;P3&lt;/font&gt;&lt;/b&gt;" style="text;html=1;align=center;verticalAlign=middle;whiteSpace=wrap;rounded=0;" parent="B5kogLpXedkELQ5c-NoK-29" vertex="1">
          <mxGeometry x="120" y="100.1875" width="60" height="30.669642857142858" as="geometry" />
        </mxCell>
        <mxCell id="B5kogLpXedkELQ5c-NoK-15" style="edgeStyle=orthogonalEdgeStyle;rounded=0;orthogonalLoop=1;jettySize=auto;html=1;exitX=0.145;exitY=0;exitDx=0;exitDy=4.35;exitPerimeter=0;" parent="B5kogLpXedkELQ5c-NoK-29" source="B5kogLpXedkELQ5c-NoK-12" edge="1">
          <mxGeometry relative="1" as="geometry">
            <mxPoint x="139" y="153.34821428571428" as="targetPoint" />
          </mxGeometry>
        </mxCell>
        <mxCell id="B5kogLpXedkELQ5c-NoK-12" value="" style="shape=cylinder3;whiteSpace=wrap;html=1;boundedLbl=1;backgroundOutline=1;size=15;fillColor=#fff2cc;strokeColor=light-dark(#de0d0d, #6d5100);" parent="B5kogLpXedkELQ5c-NoK-29" vertex="1">
          <mxGeometry x="120" y="174.81696428571428" width="130" height="51.11607142857143" as="geometry" />
        </mxCell>
        <mxCell id="B5kogLpXedkELQ5c-NoK-13" value="&lt;b&gt;&lt;font style=&quot;font-size: 14px;&quot;&gt;Database&lt;/font&gt;&lt;/b&gt;" style="text;html=1;align=center;verticalAlign=middle;whiteSpace=wrap;rounded=0;" parent="B5kogLpXedkELQ5c-NoK-29" vertex="1">
          <mxGeometry x="155" y="198.33035714285714" width="60" height="30.669642857142858" as="geometry" />
        </mxCell>
        <mxCell id="B5kogLpXedkELQ5c-NoK-16" value="&lt;b&gt;&lt;font style=&quot;font-size: 16px;&quot;&gt;Outputs&lt;/font&gt;&lt;/b&gt;" style="text;html=1;align=center;verticalAlign=middle;whiteSpace=wrap;rounded=0;" parent="B5kogLpXedkELQ5c-NoK-29" vertex="1">
          <mxGeometry x="300" y="20.446428571428573" width="60" height="30.669642857142858" as="geometry" />
        </mxCell>
        <mxCell id="B5kogLpXedkELQ5c-NoK-27" style="edgeStyle=orthogonalEdgeStyle;rounded=0;orthogonalLoop=1;jettySize=auto;html=1;exitX=1;exitY=0.5;exitDx=0;exitDy=0;" parent="B5kogLpXedkELQ5c-NoK-29" source="B5kogLpXedkELQ5c-NoK-18" edge="1">
          <mxGeometry relative="1" as="geometry">
            <mxPoint x="90" y="35.78125" as="targetPoint" />
          </mxGeometry>
        </mxCell>
        <mxCell id="B5kogLpXedkELQ5c-NoK-18" value="&lt;b&gt;&lt;font style=&quot;font-size: 16px;&quot;&gt;Inputs&lt;/font&gt;&lt;/b&gt;" style="text;html=1;align=center;verticalAlign=middle;whiteSpace=wrap;rounded=0;" parent="B5kogLpXedkELQ5c-NoK-29" vertex="1">
          <mxGeometry y="20.446428571428573" width="60" height="30.669642857142858" as="geometry" />
        </mxCell>
        <mxCell id="B5kogLpXedkELQ5c-NoK-19" value="(&lt;b&gt;&lt;font style=&quot;font-size: 11px;&quot;&gt;Intormation&lt;/font&gt;&lt;/b&gt;)" style="text;html=1;align=center;verticalAlign=middle;whiteSpace=wrap;rounded=0;" parent="B5kogLpXedkELQ5c-NoK-29" vertex="1">
          <mxGeometry x="300" y="54.69419642857143" width="60" height="30.669642857142858" as="geometry" />
        </mxCell>
        <mxCell id="B5kogLpXedkELQ5c-NoK-28" style="edgeStyle=orthogonalEdgeStyle;rounded=0;orthogonalLoop=1;jettySize=auto;html=1;exitX=1;exitY=0.5;exitDx=0;exitDy=0;" parent="B5kogLpXedkELQ5c-NoK-29" edge="1">
          <mxGeometry relative="1" as="geometry">
            <mxPoint x="90" y="70.54017857142857" as="targetPoint" />
            <mxPoint x="60" y="70.02901785714286" as="sourcePoint" />
          </mxGeometry>
        </mxCell>
        <mxCell id="B5kogLpXedkELQ5c-NoK-118" value="&lt;font style=&quot;font-size: 11px;&quot;&gt;&lt;b&gt;(Data)&lt;/b&gt;&lt;/font&gt;" style="text;html=1;align=center;verticalAlign=middle;whiteSpace=wrap;rounded=0;" parent="B5kogLpXedkELQ5c-NoK-29" vertex="1">
          <mxGeometry y="51.11607142857143" width="60" height="30.669642857142858" as="geometry" />
        </mxCell>
        <mxCell id="B5kogLpXedkELQ5c-NoK-93" value="" style="group;strokeColor=default;" parent="1" vertex="1" connectable="0">
          <mxGeometry x="-160" y="1149" width="510" height="475.5" as="geometry" />
        </mxCell>
        <mxCell id="B5kogLpXedkELQ5c-NoK-72" style="edgeStyle=orthogonalEdgeStyle;rounded=0;orthogonalLoop=1;jettySize=auto;html=1;exitX=0.5;exitY=1;exitDx=0;exitDy=0;entryX=0;entryY=0.5;entryDx=0;entryDy=0;fillColor=#6a00ff;strokeColor=#3700CC;" parent="B5kogLpXedkELQ5c-NoK-93" source="B5kogLpXedkELQ5c-NoK-31" target="B5kogLpXedkELQ5c-NoK-48" edge="1">
          <mxGeometry relative="1" as="geometry" />
        </mxCell>
        <mxCell id="B5kogLpXedkELQ5c-NoK-83" style="edgeStyle=orthogonalEdgeStyle;rounded=0;orthogonalLoop=1;jettySize=auto;html=1;exitX=0.5;exitY=1;exitDx=0;exitDy=0;fillColor=#6a00ff;strokeColor=#3700CC;" parent="B5kogLpXedkELQ5c-NoK-93" source="B5kogLpXedkELQ5c-NoK-31" target="B5kogLpXedkELQ5c-NoK-75" edge="1">
          <mxGeometry relative="1" as="geometry">
            <Array as="points">
              <mxPoint x="275" y="386" />
            </Array>
          </mxGeometry>
        </mxCell>
        <mxCell id="B5kogLpXedkELQ5c-NoK-31" value="" style="rounded=1;whiteSpace=wrap;html=1;fillColor=#fff2cc;strokeColor=light-dark(#e81111, #6d5100);" parent="B5kogLpXedkELQ5c-NoK-93" vertex="1">
          <mxGeometry x="205" y="136" width="140" height="209" as="geometry" />
        </mxCell>
        <mxCell id="B5kogLpXedkELQ5c-NoK-32" value="&lt;b&gt;&lt;font style=&quot;font-size: 15px;&quot;&gt;Main Program&lt;/font&gt;&lt;/b&gt;" style="text;html=1;align=center;verticalAlign=middle;whiteSpace=wrap;rounded=0;" parent="B5kogLpXedkELQ5c-NoK-93" vertex="1">
          <mxGeometry x="210" y="150" width="130" height="30" as="geometry" />
        </mxCell>
        <mxCell id="B5kogLpXedkELQ5c-NoK-33" value="&lt;b&gt;start&lt;/b&gt;" style="text;html=1;align=center;verticalAlign=middle;whiteSpace=wrap;rounded=0;" parent="B5kogLpXedkELQ5c-NoK-93" vertex="1">
          <mxGeometry x="245" y="180" width="60" height="30" as="geometry" />
        </mxCell>
        <mxCell id="B5kogLpXedkELQ5c-NoK-34" value="&lt;b&gt;&lt;font style=&quot;font-size: 15px;&quot;&gt;Global&amp;nbsp; data&lt;/font&gt;&lt;/b&gt;" style="text;html=1;align=center;verticalAlign=middle;whiteSpace=wrap;rounded=0;" parent="B5kogLpXedkELQ5c-NoK-93" vertex="1">
          <mxGeometry x="210" y="202" width="130" height="30" as="geometry" />
        </mxCell>
        <mxCell id="B5kogLpXedkELQ5c-NoK-35" value="&lt;b&gt;&lt;font style=&quot;font-size: 15px;&quot;&gt;Call function 1&lt;/font&gt;&lt;/b&gt;" style="text;html=1;align=center;verticalAlign=middle;whiteSpace=wrap;rounded=0;" parent="B5kogLpXedkELQ5c-NoK-93" vertex="1">
          <mxGeometry x="210" y="229" width="130" height="30" as="geometry" />
        </mxCell>
        <mxCell id="B5kogLpXedkELQ5c-NoK-36" value="&lt;b&gt;&lt;font style=&quot;font-size: 15px;&quot;&gt;Call function 2&lt;/font&gt;&lt;/b&gt;" style="text;html=1;align=center;verticalAlign=middle;whiteSpace=wrap;rounded=0;" parent="B5kogLpXedkELQ5c-NoK-93" vertex="1">
          <mxGeometry x="210" y="246" width="130" height="30" as="geometry" />
        </mxCell>
        <mxCell id="B5kogLpXedkELQ5c-NoK-37" value="&lt;b&gt;&lt;font style=&quot;font-size: 15px;&quot;&gt;Call function 3&lt;/font&gt;&lt;/b&gt;" style="text;html=1;align=center;verticalAlign=middle;whiteSpace=wrap;rounded=0;" parent="B5kogLpXedkELQ5c-NoK-93" vertex="1">
          <mxGeometry x="210" y="268" width="130" height="30" as="geometry" />
        </mxCell>
        <mxCell id="B5kogLpXedkELQ5c-NoK-38" value="&lt;b&gt;&lt;font style=&quot;font-size: 15px;&quot;&gt;Call function 4&lt;/font&gt;&lt;/b&gt;" style="text;html=1;align=center;verticalAlign=middle;whiteSpace=wrap;rounded=0;" parent="B5kogLpXedkELQ5c-NoK-93" vertex="1">
          <mxGeometry x="210" y="285" width="130" height="30" as="geometry" />
        </mxCell>
        <mxCell id="B5kogLpXedkELQ5c-NoK-40" value="&lt;b&gt;stop&lt;/b&gt;" style="text;html=1;align=center;verticalAlign=middle;whiteSpace=wrap;rounded=0;" parent="B5kogLpXedkELQ5c-NoK-93" vertex="1">
          <mxGeometry x="240" y="301" width="60" height="30" as="geometry" />
        </mxCell>
        <mxCell id="B5kogLpXedkELQ5c-NoK-60" style="edgeStyle=orthogonalEdgeStyle;rounded=0;orthogonalLoop=1;jettySize=auto;html=1;exitX=0.5;exitY=1;exitDx=0;exitDy=0;entryX=1;entryY=0.5;entryDx=0;entryDy=0;fillColor=#6a00ff;strokeColor=#3700CC;" parent="B5kogLpXedkELQ5c-NoK-93" source="B5kogLpXedkELQ5c-NoK-41" target="B5kogLpXedkELQ5c-NoK-31" edge="1">
          <mxGeometry relative="1" as="geometry" />
        </mxCell>
        <mxCell id="B5kogLpXedkELQ5c-NoK-41" value="" style="rounded=1;whiteSpace=wrap;html=1;fillColor=#fff2cc;strokeColor=light-dark(#88f00a, #6d5100);" parent="B5kogLpXedkELQ5c-NoK-93" vertex="1">
          <mxGeometry x="395" width="110" height="166" as="geometry" />
        </mxCell>
        <mxCell id="B5kogLpXedkELQ5c-NoK-42" value="&lt;b&gt;&lt;font style=&quot;font-size: 15px;&quot;&gt;Function 2&lt;/font&gt;&lt;/b&gt;" style="text;html=1;align=center;verticalAlign=middle;whiteSpace=wrap;rounded=0;" parent="B5kogLpXedkELQ5c-NoK-93" vertex="1">
          <mxGeometry x="380" y="5" width="130" height="30" as="geometry" />
        </mxCell>
        <mxCell id="B5kogLpXedkELQ5c-NoK-46" value="&lt;b&gt;&lt;font style=&quot;font-size: 13px;&quot;&gt;Begin&lt;/font&gt;&lt;/b&gt;" style="text;html=1;align=center;verticalAlign=middle;whiteSpace=wrap;rounded=0;" parent="B5kogLpXedkELQ5c-NoK-93" vertex="1">
          <mxGeometry x="360" y="31.5" width="130" height="30" as="geometry" />
        </mxCell>
        <mxCell id="B5kogLpXedkELQ5c-NoK-50" value="&lt;b&gt;&lt;font style=&quot;font-size: 15px;&quot;&gt;Do&lt;/font&gt;&lt;/b&gt;&amp;nbsp;&lt;span style=&quot;font-size: 14px;&quot;&gt;&lt;b&gt;z&lt;/b&gt;&lt;/span&gt;" style="text;html=1;align=center;verticalAlign=middle;whiteSpace=wrap;rounded=0;" parent="B5kogLpXedkELQ5c-NoK-93" vertex="1">
          <mxGeometry x="395" y="106" width="60" height="30" as="geometry" />
        </mxCell>
        <mxCell id="B5kogLpXedkELQ5c-NoK-51" value="&lt;b&gt;&lt;font style=&quot;font-size: 15px;&quot;&gt;Do&lt;/font&gt;&lt;/b&gt;&amp;nbsp;&lt;span style=&quot;font-size: 14px;&quot;&gt;&lt;b&gt;y&lt;/b&gt;&lt;/span&gt;" style="text;html=1;align=center;verticalAlign=middle;whiteSpace=wrap;rounded=0;" parent="B5kogLpXedkELQ5c-NoK-93" vertex="1">
          <mxGeometry x="395" y="81.25" width="60" height="26.5" as="geometry" />
        </mxCell>
        <mxCell id="B5kogLpXedkELQ5c-NoK-53" value="&lt;b&gt;return&lt;/b&gt;" style="text;html=1;align=center;verticalAlign=middle;whiteSpace=wrap;rounded=0;" parent="B5kogLpXedkELQ5c-NoK-93" vertex="1">
          <mxGeometry x="390" y="132" width="60" height="30" as="geometry" />
        </mxCell>
        <mxCell id="B5kogLpXedkELQ5c-NoK-61" value="" style="rounded=1;whiteSpace=wrap;html=1;fillColor=#e1d5e7;strokeColor=light-dark(#094ef1, #9577a3);" parent="B5kogLpXedkELQ5c-NoK-93" vertex="1">
          <mxGeometry x="390" y="321" width="115" height="154.5" as="geometry" />
        </mxCell>
        <mxCell id="B5kogLpXedkELQ5c-NoK-64" value="&lt;b&gt;&lt;font style=&quot;font-size: 13px;&quot;&gt;Begin&lt;/font&gt;&lt;/b&gt;" style="text;html=1;align=center;verticalAlign=middle;whiteSpace=wrap;rounded=0;" parent="B5kogLpXedkELQ5c-NoK-93" vertex="1">
          <mxGeometry x="355" y="345" width="130" height="30" as="geometry" />
        </mxCell>
        <mxCell id="B5kogLpXedkELQ5c-NoK-48" value="&lt;span style=&quot;font-size: 15px;&quot;&gt;&lt;b&gt;If x Then y&lt;/b&gt;&lt;/span&gt;" style="text;html=1;align=center;verticalAlign=middle;whiteSpace=wrap;rounded=0;" parent="B5kogLpXedkELQ5c-NoK-93" vertex="1">
          <mxGeometry x="390" y="370.5" width="90" height="30" as="geometry" />
        </mxCell>
        <mxCell id="B5kogLpXedkELQ5c-NoK-66" value="&lt;b&gt;&lt;font style=&quot;font-size: 15px;&quot;&gt;Do&lt;/font&gt;&lt;/b&gt;&amp;nbsp;&lt;span style=&quot;font-size: 14px;&quot;&gt;&lt;b&gt;x&lt;/b&gt;&lt;/span&gt;" style="text;html=1;align=center;verticalAlign=middle;whiteSpace=wrap;rounded=0;" parent="B5kogLpXedkELQ5c-NoK-93" vertex="1">
          <mxGeometry x="395" y="55" width="60" height="30" as="geometry" />
        </mxCell>
        <mxCell id="B5kogLpXedkELQ5c-NoK-67" value="&lt;span style=&quot;font-size: 15px;&quot;&gt;&lt;b&gt;Else z&lt;/b&gt;&lt;/span&gt;" style="text;html=1;align=center;verticalAlign=middle;whiteSpace=wrap;rounded=0;" parent="B5kogLpXedkELQ5c-NoK-93" vertex="1">
          <mxGeometry x="375" y="396" width="90" height="30" as="geometry" />
        </mxCell>
        <mxCell id="B5kogLpXedkELQ5c-NoK-68" value="&lt;span style=&quot;font-size: 15px;&quot;&gt;&lt;b&gt;Do abc&lt;/b&gt;&lt;/span&gt;" style="text;html=1;align=center;verticalAlign=middle;whiteSpace=wrap;rounded=0;" parent="B5kogLpXedkELQ5c-NoK-93" vertex="1">
          <mxGeometry x="380" y="420.5" width="90" height="30" as="geometry" />
        </mxCell>
        <mxCell id="B5kogLpXedkELQ5c-NoK-70" value="&lt;b&gt;return&lt;/b&gt;" style="text;html=1;align=center;verticalAlign=middle;whiteSpace=wrap;rounded=0;" parent="B5kogLpXedkELQ5c-NoK-93" vertex="1">
          <mxGeometry x="390" y="445.5" width="60" height="30" as="geometry" />
        </mxCell>
        <mxCell id="B5kogLpXedkELQ5c-NoK-74" value="&lt;b&gt;&lt;font style=&quot;font-size: 15px;&quot;&gt;Function 4&lt;/font&gt;&lt;/b&gt;" style="text;html=1;align=center;verticalAlign=middle;whiteSpace=wrap;rounded=0;" parent="B5kogLpXedkELQ5c-NoK-93" vertex="1">
          <mxGeometry x="370" y="321" width="130" height="30" as="geometry" />
        </mxCell>
        <mxCell id="B5kogLpXedkELQ5c-NoK-75" value="" style="rounded=1;whiteSpace=wrap;html=1;fillColor=#dae8fc;strokeColor=light-dark(#dc0be0, #5c79a3);" parent="B5kogLpXedkELQ5c-NoK-93" vertex="1">
          <mxGeometry x="40" y="320.5" width="115" height="115" as="geometry" />
        </mxCell>
        <mxCell id="B5kogLpXedkELQ5c-NoK-76" value="&lt;b&gt;&lt;font style=&quot;font-size: 15px;&quot;&gt;Function 3&lt;/font&gt;&lt;/b&gt;" style="text;html=1;align=center;verticalAlign=middle;whiteSpace=wrap;rounded=0;" parent="B5kogLpXedkELQ5c-NoK-93" vertex="1">
          <mxGeometry x="20" y="321" width="130" height="30" as="geometry" />
        </mxCell>
        <mxCell id="B5kogLpXedkELQ5c-NoK-77" value="&lt;b&gt;&lt;font style=&quot;font-size: 13px;&quot;&gt;Begin&lt;/font&gt;&lt;/b&gt;" style="text;html=1;align=center;verticalAlign=middle;whiteSpace=wrap;rounded=0;" parent="B5kogLpXedkELQ5c-NoK-93" vertex="1">
          <mxGeometry y="340.5" width="130" height="30" as="geometry" />
        </mxCell>
        <mxCell id="B5kogLpXedkELQ5c-NoK-78" value="&lt;b&gt;&lt;font style=&quot;font-size: 15px;&quot;&gt;Do&lt;/font&gt;&lt;/b&gt;&amp;nbsp;&lt;span style=&quot;font-size: 14px;&quot;&gt;&lt;b&gt;1&lt;/b&gt;&lt;/span&gt;" style="text;html=1;align=center;verticalAlign=middle;whiteSpace=wrap;rounded=0;" parent="B5kogLpXedkELQ5c-NoK-93" vertex="1">
          <mxGeometry x="30" y="364.75" width="60" height="26.5" as="geometry" />
        </mxCell>
        <mxCell id="B5kogLpXedkELQ5c-NoK-79" value="&lt;b&gt;return&lt;/b&gt;" style="text;html=1;align=center;verticalAlign=middle;whiteSpace=wrap;rounded=0;" parent="B5kogLpXedkELQ5c-NoK-93" vertex="1">
          <mxGeometry x="30" y="391.25" width="60" height="30" as="geometry" />
        </mxCell>
        <mxCell id="B5kogLpXedkELQ5c-NoK-84" value="" style="rounded=1;whiteSpace=wrap;html=1;fillColor=#d5e8d4;strokeColor=light-dark(#0bbdea, #446e2c);" parent="B5kogLpXedkELQ5c-NoK-93" vertex="1">
          <mxGeometry x="30" width="110" height="166" as="geometry" />
        </mxCell>
        <mxCell id="B5kogLpXedkELQ5c-NoK-85" value="&lt;b&gt;&lt;font style=&quot;font-size: 15px;&quot;&gt;Function 1&lt;/font&gt;&lt;/b&gt;" style="text;html=1;align=center;verticalAlign=middle;whiteSpace=wrap;rounded=0;" parent="B5kogLpXedkELQ5c-NoK-93" vertex="1">
          <mxGeometry x="10" y="5" width="130" height="30" as="geometry" />
        </mxCell>
        <mxCell id="B5kogLpXedkELQ5c-NoK-87" value="&lt;b&gt;return&lt;/b&gt;" style="text;html=1;align=center;verticalAlign=middle;whiteSpace=wrap;rounded=0;" parent="B5kogLpXedkELQ5c-NoK-93" vertex="1">
          <mxGeometry x="25" y="132" width="60" height="30" as="geometry" />
        </mxCell>
        <mxCell id="B5kogLpXedkELQ5c-NoK-88" value="&lt;b&gt;&lt;font style=&quot;font-size: 15px;&quot;&gt;Do&lt;/font&gt;&lt;/b&gt;&amp;nbsp;&lt;span style=&quot;font-size: 14px;&quot;&gt;&lt;b&gt;1&lt;/b&gt;&lt;/span&gt;" style="text;html=1;align=center;verticalAlign=middle;whiteSpace=wrap;rounded=0;" parent="B5kogLpXedkELQ5c-NoK-93" vertex="1">
          <mxGeometry x="20" y="54.75" width="60" height="26.5" as="geometry" />
        </mxCell>
        <mxCell id="B5kogLpXedkELQ5c-NoK-89" value="&lt;b&gt;&lt;font style=&quot;font-size: 15px;&quot;&gt;Do&lt;/font&gt;&lt;/b&gt;&amp;nbsp;&lt;span style=&quot;font-size: 14px;&quot;&gt;&lt;b&gt;2&lt;/b&gt;&lt;/span&gt;" style="text;html=1;align=center;verticalAlign=middle;whiteSpace=wrap;rounded=0;" parent="B5kogLpXedkELQ5c-NoK-93" vertex="1">
          <mxGeometry x="20" y="79.5" width="60" height="26.5" as="geometry" />
        </mxCell>
        <mxCell id="B5kogLpXedkELQ5c-NoK-90" value="&lt;b&gt;&lt;font style=&quot;font-size: 15px;&quot;&gt;Do&lt;/font&gt;&lt;/b&gt;&amp;nbsp;&lt;span style=&quot;font-size: 14px;&quot;&gt;&lt;b&gt;3&lt;/b&gt;&lt;/span&gt;" style="text;html=1;align=center;verticalAlign=middle;whiteSpace=wrap;rounded=0;" parent="B5kogLpXedkELQ5c-NoK-93" vertex="1">
          <mxGeometry x="20" y="104.5" width="60" height="26.5" as="geometry" />
        </mxCell>
        <mxCell id="B5kogLpXedkELQ5c-NoK-91" style="edgeStyle=orthogonalEdgeStyle;rounded=0;orthogonalLoop=1;jettySize=auto;html=1;exitX=0.5;exitY=1;exitDx=0;exitDy=0;entryX=0.036;entryY=0.455;entryDx=0;entryDy=0;entryPerimeter=0;fillColor=#6a00ff;strokeColor=#3700CC;" parent="B5kogLpXedkELQ5c-NoK-93" source="B5kogLpXedkELQ5c-NoK-84" target="B5kogLpXedkELQ5c-NoK-31" edge="1">
          <mxGeometry relative="1" as="geometry" />
        </mxCell>
        <mxCell id="SJf1T9VswZueH_bgooRf-1" value="วัตถุแต่ละวัตถุมีองค์ประกอบ 2 ส่วน" style="text;html=1;align=center;verticalAlign=middle;whiteSpace=wrap;rounded=0;" parent="1" vertex="1">
          <mxGeometry x="-510" y="1266" width="130" height="50" as="geometry" />
        </mxCell>
        <mxCell id="SJf1T9VswZueH_bgooRf-2" value="ข้อมูล [Data]" style="text;html=1;align=center;verticalAlign=middle;whiteSpace=wrap;rounded=0;" parent="1" vertex="1">
          <mxGeometry x="-570" y="1316" width="60" height="30" as="geometry" />
        </mxCell>
        <mxCell id="SJf1T9VswZueH_bgooRf-5" value="&lt;span style=&quot;text-wrap-mode: nowrap;&quot;&gt;พฤติกรรม = การดำเนินงาน/เมท็อด&lt;/span&gt;&lt;div&gt;&lt;span style=&quot;text-wrap-mode: nowrap;&quot;&gt;&amp;nbsp;[Operatiom/Methods]&lt;/span&gt;&lt;/div&gt;" style="text;html=1;align=center;verticalAlign=middle;whiteSpace=wrap;rounded=0;" parent="1" vertex="1">
          <mxGeometry x="-390" y="1316" width="180" height="40" as="geometry" />
        </mxCell>
        <mxCell id="SJf1T9VswZueH_bgooRf-7" value="โปรแกรมโครงสร้างแบ่งเป็น 2 ส่วน&amp;nbsp;" style="text;html=1;align=center;verticalAlign=middle;whiteSpace=wrap;rounded=0;" parent="1" vertex="1">
          <mxGeometry x="-500" y="1404.5" width="110" height="30" as="geometry" />
        </mxCell>
        <mxCell id="SJf1T9VswZueH_bgooRf-8" value="ส่วนหลัก&amp;nbsp;&lt;div&gt;[MainProgram]&lt;/div&gt;" style="text;html=1;align=center;verticalAlign=middle;whiteSpace=wrap;rounded=0;" parent="1" vertex="1">
          <mxGeometry x="-585" y="1460" width="90" height="30" as="geometry" />
        </mxCell>
        <mxCell id="SJf1T9VswZueH_bgooRf-9" value="ส่วนย่อย&lt;div&gt;[Procedure / Function&lt;/div&gt;" style="text;html=1;align=center;verticalAlign=middle;whiteSpace=wrap;rounded=0;" parent="1" vertex="1">
          <mxGeometry x="-380" y="1460" width="120" height="30" as="geometry" />
        </mxCell>
        <mxCell id="SJf1T9VswZueH_bgooRf-27" value="" style="group;strokeColor=default;" parent="1" vertex="1" connectable="0">
          <mxGeometry x="515" y="1460" width="210" height="450" as="geometry" />
        </mxCell>
        <mxCell id="SJf1T9VswZueH_bgooRf-66" style="edgeStyle=orthogonalEdgeStyle;rounded=0;orthogonalLoop=1;jettySize=auto;html=1;exitX=0.5;exitY=1;exitDx=0;exitDy=0;exitPerimeter=0;" parent="SJf1T9VswZueH_bgooRf-27" source="SJf1T9VswZueH_bgooRf-10" edge="1">
          <mxGeometry relative="1" as="geometry">
            <mxPoint x="108" y="60" as="targetPoint" />
          </mxGeometry>
        </mxCell>
        <mxCell id="SJf1T9VswZueH_bgooRf-10" value="" style="strokeWidth=2;html=1;shape=mxgraph.flowchart.delay;whiteSpace=wrap;fillColor=#e1d5e7;strokeColor=#9673a6;" parent="SJf1T9VswZueH_bgooRf-27" vertex="1">
          <mxGeometry x="60" width="95" height="40" as="geometry" />
        </mxCell>
        <mxCell id="SJf1T9VswZueH_bgooRf-11" value="&lt;b&gt;เริ่มต้น&lt;/b&gt;" style="text;html=1;align=center;verticalAlign=middle;whiteSpace=wrap;rounded=0;" parent="SJf1T9VswZueH_bgooRf-27" vertex="1">
          <mxGeometry x="70" y="5" width="60" height="30" as="geometry" />
        </mxCell>
        <mxCell id="SJf1T9VswZueH_bgooRf-65" style="edgeStyle=orthogonalEdgeStyle;rounded=0;orthogonalLoop=1;jettySize=auto;html=1;exitX=0.5;exitY=1;exitDx=0;exitDy=0;" parent="SJf1T9VswZueH_bgooRf-27" source="SJf1T9VswZueH_bgooRf-14" edge="1">
          <mxGeometry relative="1" as="geometry">
            <mxPoint x="105" y="160" as="targetPoint" />
          </mxGeometry>
        </mxCell>
        <mxCell id="SJf1T9VswZueH_bgooRf-14" value="" style="verticalLabelPosition=bottom;verticalAlign=top;html=1;shape=hexagon;perimeter=hexagonPerimeter2;arcSize=6;size=0.27;fillColor=#dae8fc;strokeColor=light-dark(#1467db, #5c79a3);strokeWidth=2;" parent="SJf1T9VswZueH_bgooRf-27" vertex="1">
          <mxGeometry y="69.75" width="210" height="59.5" as="geometry" />
        </mxCell>
        <mxCell id="SJf1T9VswZueH_bgooRf-15" value="&lt;b&gt;ประกาศค่า และกำหนดค่าเริ่มต้นให้กับตัวแปร&lt;/b&gt;" style="text;html=1;align=center;verticalAlign=middle;whiteSpace=wrap;rounded=0;" parent="SJf1T9VswZueH_bgooRf-27" vertex="1">
          <mxGeometry x="40" y="84.5" width="140" height="30" as="geometry" />
        </mxCell>
        <mxCell id="SJf1T9VswZueH_bgooRf-67" style="edgeStyle=orthogonalEdgeStyle;rounded=0;orthogonalLoop=1;jettySize=auto;html=1;exitX=0.5;exitY=1;exitDx=0;exitDy=0;" parent="SJf1T9VswZueH_bgooRf-27" source="SJf1T9VswZueH_bgooRf-16" edge="1">
          <mxGeometry relative="1" as="geometry">
            <mxPoint x="105" y="230" as="targetPoint" />
          </mxGeometry>
        </mxCell>
        <mxCell id="SJf1T9VswZueH_bgooRf-16" value="" style="shape=parallelogram;html=1;strokeWidth=2;perimeter=parallelogramPerimeter;whiteSpace=wrap;rounded=1;arcSize=12;size=0.23;strokeColor=#d79b00;fillColor=#ffe6cc;" parent="SJf1T9VswZueH_bgooRf-27" vertex="1">
          <mxGeometry x="40" y="160" width="130" height="50" as="geometry" />
        </mxCell>
        <mxCell id="SJf1T9VswZueH_bgooRf-18" value="&lt;b&gt;Input&lt;/b&gt;" style="text;html=1;align=center;verticalAlign=middle;whiteSpace=wrap;rounded=0;" parent="SJf1T9VswZueH_bgooRf-27" vertex="1">
          <mxGeometry x="70" y="170" width="60" height="30" as="geometry" />
        </mxCell>
        <mxCell id="SJf1T9VswZueH_bgooRf-68" style="edgeStyle=orthogonalEdgeStyle;rounded=0;orthogonalLoop=1;jettySize=auto;html=1;exitX=0.5;exitY=1;exitDx=0;exitDy=0;" parent="SJf1T9VswZueH_bgooRf-27" source="SJf1T9VswZueH_bgooRf-19" edge="1">
          <mxGeometry relative="1" as="geometry">
            <mxPoint x="110" y="310" as="targetPoint" />
          </mxGeometry>
        </mxCell>
        <mxCell id="SJf1T9VswZueH_bgooRf-19" value="" style="rounded=0;whiteSpace=wrap;html=1;fillColor=light-dark(#0bf4d8, #281d00);strokeColor=#d6b656;strokeWidth=2;" parent="SJf1T9VswZueH_bgooRf-27" vertex="1">
          <mxGeometry x="40" y="246" width="140" height="44" as="geometry" />
        </mxCell>
        <mxCell id="SJf1T9VswZueH_bgooRf-20" value="&lt;b&gt;กระบวนการ&lt;/b&gt;" style="text;html=1;align=center;verticalAlign=middle;whiteSpace=wrap;rounded=0;" parent="SJf1T9VswZueH_bgooRf-27" vertex="1">
          <mxGeometry x="55" y="253" width="110" height="30" as="geometry" />
        </mxCell>
        <mxCell id="SJf1T9VswZueH_bgooRf-69" style="edgeStyle=orthogonalEdgeStyle;rounded=0;orthogonalLoop=1;jettySize=auto;html=1;exitX=0.5;exitY=1;exitDx=0;exitDy=0;" parent="SJf1T9VswZueH_bgooRf-27" source="SJf1T9VswZueH_bgooRf-22" edge="1">
          <mxGeometry relative="1" as="geometry">
            <mxPoint x="115" y="400" as="targetPoint" />
          </mxGeometry>
        </mxCell>
        <mxCell id="SJf1T9VswZueH_bgooRf-22" value="" style="shape=parallelogram;html=1;strokeWidth=2;perimeter=parallelogramPerimeter;whiteSpace=wrap;rounded=1;arcSize=12;size=0.23;fillColor=light-dark(#f471bd, #ededed);strokeColor=light-dark(#b007ed, #ededed);" parent="SJf1T9VswZueH_bgooRf-27" vertex="1">
          <mxGeometry x="50" y="319" width="130" height="50" as="geometry" />
        </mxCell>
        <mxCell id="SJf1T9VswZueH_bgooRf-23" value="&lt;b&gt;Output&lt;/b&gt;" style="text;html=1;align=center;verticalAlign=middle;whiteSpace=wrap;rounded=0;" parent="SJf1T9VswZueH_bgooRf-27" vertex="1">
          <mxGeometry x="85" y="329" width="60" height="30" as="geometry" />
        </mxCell>
        <mxCell id="SJf1T9VswZueH_bgooRf-24" value="" style="strokeWidth=2;html=1;shape=mxgraph.flowchart.delay;whiteSpace=wrap;fillColor=#ffe6cc;strokeColor=light-dark(#f9fd0d, #ededed);" parent="SJf1T9VswZueH_bgooRf-27" vertex="1">
          <mxGeometry x="57.5" y="410" width="95" height="40" as="geometry" />
        </mxCell>
        <mxCell id="SJf1T9VswZueH_bgooRf-25" value="&lt;b&gt;จบ&lt;/b&gt;" style="text;html=1;align=center;verticalAlign=middle;whiteSpace=wrap;rounded=0;" parent="SJf1T9VswZueH_bgooRf-27" vertex="1">
          <mxGeometry x="70" y="415" width="60" height="30" as="geometry" />
        </mxCell>
        <mxCell id="SJf1T9VswZueH_bgooRf-73" value="" style="group;strokeColor=default;strokeWidth=1;" parent="1" vertex="1" connectable="0">
          <mxGeometry x="-25" y="1676.5" width="240" height="315" as="geometry" />
        </mxCell>
        <mxCell id="SJf1T9VswZueH_bgooRf-70" style="edgeStyle=orthogonalEdgeStyle;rounded=0;orthogonalLoop=1;jettySize=auto;html=1;exitX=0.5;exitY=1;exitDx=0;exitDy=0;exitPerimeter=0;" parent="SJf1T9VswZueH_bgooRf-73" source="SJf1T9VswZueH_bgooRf-29" edge="1">
          <mxGeometry relative="1" as="geometry">
            <mxPoint x="113" y="73.5" as="targetPoint" />
          </mxGeometry>
        </mxCell>
        <mxCell id="SJf1T9VswZueH_bgooRf-29" value="" style="strokeWidth=2;html=1;shape=mxgraph.flowchart.delay;whiteSpace=wrap;fillColor=#e1d5e7;strokeColor=#9673a6;" parent="SJf1T9VswZueH_bgooRf-73" vertex="1">
          <mxGeometry x="65" width="95" height="40" as="geometry" />
        </mxCell>
        <mxCell id="SJf1T9VswZueH_bgooRf-43" value="&lt;b&gt;เริ่มต้น&lt;/b&gt;" style="text;html=1;align=center;verticalAlign=middle;whiteSpace=wrap;rounded=0;" parent="SJf1T9VswZueH_bgooRf-73" vertex="1">
          <mxGeometry x="75" y="5" width="60" height="30" as="geometry" />
        </mxCell>
        <mxCell id="SJf1T9VswZueH_bgooRf-71" style="edgeStyle=orthogonalEdgeStyle;rounded=0;orthogonalLoop=1;jettySize=auto;html=1;exitX=0.5;exitY=1;exitDx=0;exitDy=0;" parent="SJf1T9VswZueH_bgooRf-73" source="SJf1T9VswZueH_bgooRf-44" edge="1">
          <mxGeometry relative="1" as="geometry">
            <mxPoint x="113" y="163.5" as="targetPoint" />
          </mxGeometry>
        </mxCell>
        <mxCell id="SJf1T9VswZueH_bgooRf-44" value="" style="verticalLabelPosition=bottom;verticalAlign=top;html=1;shape=hexagon;perimeter=hexagonPerimeter2;arcSize=6;size=0.27;fillColor=#dae8fc;strokeColor=light-dark(#1467db, #5c79a3);strokeWidth=2;" parent="SJf1T9VswZueH_bgooRf-73" vertex="1">
          <mxGeometry x="7.5" y="77.5" width="210" height="59.5" as="geometry" />
        </mxCell>
        <mxCell id="SJf1T9VswZueH_bgooRf-45" value="&lt;b&gt;สร้างคลาส กำหนดตัวแปรและเมท็อด สร้างวัตถุ และกำหนดค่าเริ่มต้น&lt;/b&gt;" style="text;html=1;align=center;verticalAlign=middle;whiteSpace=wrap;rounded=0;" parent="SJf1T9VswZueH_bgooRf-73" vertex="1">
          <mxGeometry x="42.5" y="92.25" width="140" height="30" as="geometry" />
        </mxCell>
        <mxCell id="SJf1T9VswZueH_bgooRf-72" style="edgeStyle=orthogonalEdgeStyle;rounded=0;orthogonalLoop=1;jettySize=auto;html=1;exitX=0.5;exitY=1;exitDx=0;exitDy=0;" parent="SJf1T9VswZueH_bgooRf-73" source="SJf1T9VswZueH_bgooRf-62" edge="1">
          <mxGeometry relative="1" as="geometry">
            <mxPoint x="120" y="263.5" as="targetPoint" />
          </mxGeometry>
        </mxCell>
        <mxCell id="SJf1T9VswZueH_bgooRf-62" value="" style="rounded=0;whiteSpace=wrap;html=1;fillColor=light-dark(#87f29c, #ededed);strokeColor=light-dark(#39ed07, #ededed);strokeWidth=2;" parent="SJf1T9VswZueH_bgooRf-73" vertex="1">
          <mxGeometry y="178.5" width="240" height="55" as="geometry" />
        </mxCell>
        <mxCell id="SJf1T9VswZueH_bgooRf-48" value="&lt;b&gt;อ้างอิงวัตถุที่สร้าง และเรียกใช้งานเมท็อด&lt;/b&gt;" style="text;html=1;align=center;verticalAlign=middle;whiteSpace=wrap;rounded=0;" parent="SJf1T9VswZueH_bgooRf-73" vertex="1">
          <mxGeometry x="7.5" y="191" width="225" height="30" as="geometry" />
        </mxCell>
        <mxCell id="SJf1T9VswZueH_bgooRf-63" value="" style="strokeWidth=2;html=1;shape=mxgraph.flowchart.delay;whiteSpace=wrap;fillColor=#ffe6cc;strokeColor=light-dark(#f9fd0d, #ededed);" parent="SJf1T9VswZueH_bgooRf-73" vertex="1">
          <mxGeometry x="65" y="275" width="95" height="40" as="geometry" />
        </mxCell>
        <mxCell id="SJf1T9VswZueH_bgooRf-64" value="&lt;b&gt;จบ&lt;/b&gt;" style="text;html=1;align=center;verticalAlign=middle;whiteSpace=wrap;rounded=0;" parent="SJf1T9VswZueH_bgooRf-73" vertex="1">
          <mxGeometry x="75" y="280" width="60" height="30" as="geometry" />
        </mxCell>
        <mxCell id="f3Wuk6wAEYRsW2atSkhv-1" value="&lt;b&gt;&lt;font style=&quot;font-size: 14px;&quot;&gt;วัตถุหรืออ็อบเจกต์&lt;/font&gt;&lt;/b&gt;" style="text;html=1;align=center;verticalAlign=middle;whiteSpace=wrap;rounded=0;" parent="1" vertex="1">
          <mxGeometry x="-260" y="2054" width="150" height="30" as="geometry" />
        </mxCell>
        <mxCell id="f3Wuk6wAEYRsW2atSkhv-2" value="&lt;b&gt;&lt;font style=&quot;font-size: 14px;&quot;&gt;คุณสมบัติของอ็อบเจกต์&lt;/font&gt;&lt;/b&gt;" style="text;html=1;align=center;verticalAlign=middle;whiteSpace=wrap;rounded=0;" parent="1" vertex="1">
          <mxGeometry x="510" y="2041.5" width="150" height="30" as="geometry" />
        </mxCell>
        <mxCell id="f3Wuk6wAEYRsW2atSkhv-3" value="วัตถุ คือ สิ่งใดๆที่มีคุณลักษณะ [Attribute]&lt;div&gt;ข้อมูล&lt;/div&gt;" style="text;html=1;align=center;verticalAlign=middle;whiteSpace=wrap;rounded=0;" parent="1" vertex="1">
          <mxGeometry x="-330" y="2104" width="130" height="30" as="geometry" />
        </mxCell>
        <mxCell id="f3Wuk6wAEYRsW2atSkhv-4" value="และสามารถทำพฤติกรรม [Behavior]&lt;div&gt;&lt;span style=&quot;background-color: light-dark(#ffffff, var(--ge-dark-color, #121212));&quot;&gt;ฟังก์ชั่น&lt;/span&gt;&lt;/div&gt;" style="text;html=1;align=center;verticalAlign=middle;whiteSpace=wrap;rounded=0;" parent="1" vertex="1">
          <mxGeometry x="-330" y="2149" width="130" height="30" as="geometry" />
        </mxCell>
        <mxCell id="f3Wuk6wAEYRsW2atSkhv-5" value="วััตถุที่สามารถมองเห็นและจับต้องได้" style="text;html=1;align=center;verticalAlign=middle;whiteSpace=wrap;rounded=0;" parent="1" vertex="1">
          <mxGeometry x="-270" y="2204" width="150" height="30" as="geometry" />
        </mxCell>
        <mxCell id="f3Wuk6wAEYRsW2atSkhv-6" value="การเขียนโปรแกรมเชิง&lt;span style=&quot;white-space: pre;&quot;&gt;&#x9;&lt;/span&gt;[OOP]" style="text;html=1;align=center;verticalAlign=middle;whiteSpace=wrap;rounded=0;" parent="1" vertex="1">
          <mxGeometry x="-420" y="2011.5" width="130" height="30" as="geometry" />
        </mxCell>
        <mxCell id="f3Wuk6wAEYRsW2atSkhv-9" value="วัตถุที่ลักษณะคล้ายกันจัดอยู่ใน&lt;div&gt;[Class]&lt;/div&gt;" style="text;html=1;align=center;verticalAlign=middle;whiteSpace=wrap;rounded=0;" parent="1" vertex="1">
          <mxGeometry x="-160" y="2104" width="130" height="30" as="geometry" />
        </mxCell>
        <mxCell id="f3Wuk6wAEYRsW2atSkhv-10" value="สิ่งที่มีอยู่จริงแต่ไม่สามารถจับต้องได้ กฎหมาย" style="text;html=1;align=center;verticalAlign=middle;whiteSpace=wrap;rounded=0;" parent="1" vertex="1">
          <mxGeometry x="-155" y="2150" width="130" height="30" as="geometry" />
        </mxCell>
        <mxCell id="f3Wuk6wAEYRsW2atSkhv-12" value="&lt;b&gt;&lt;font style=&quot;font-size: 14px;&quot;&gt;โปรแกมเชิงวัตถุ คือ หลักการนำโปรแกรมกลับมาใช้อีก&lt;br&gt;&lt;/font&gt;&lt;/b&gt;&lt;div&gt;&lt;b&gt;&lt;font style=&quot;font-size: 14px;&quot;&gt;[Code Reusebility]&lt;/font&gt;&lt;/b&gt;&lt;/div&gt;" style="text;html=1;align=center;verticalAlign=middle;whiteSpace=wrap;rounded=0;" parent="1" vertex="1">
          <mxGeometry x="290" y="2140" width="340" height="30" as="geometry" />
        </mxCell>
        <mxCell id="f3Wuk6wAEYRsW2atSkhv-13" value="&lt;span style=&quot;font-size: 14px;&quot;&gt;&lt;b&gt;ทำงานตามเหตุการณ์ [Event Driven]&lt;/b&gt;&lt;/span&gt;" style="text;html=1;align=center;verticalAlign=middle;whiteSpace=wrap;rounded=0;" parent="1" vertex="1">
          <mxGeometry x="290" y="2071.5" width="250" height="30" as="geometry" />
        </mxCell>
        <mxCell id="f3Wuk6wAEYRsW2atSkhv-15" value="แต่ละออบเจกตมีความสมบูรณ์&lt;i&gt;ในตัวเอง ทำให้เพิ่มความสามารถซอฟต์แวร์&amp;nbsp; การนำโค้ดกลับมาใช้อีก&lt;/i&gt;" style="text;html=1;align=center;verticalAlign=middle;whiteSpace=wrap;rounded=0;" parent="1" vertex="1">
          <mxGeometry x="280" y="1980" width="200" height="30" as="geometry" />
        </mxCell>
        <mxCell id="f3Wuk6wAEYRsW2atSkhv-19" value="" style="shape=dataStorage;whiteSpace=wrap;html=1;fixedSize=1;strokeColor=light-dark(#0b23e0, #ededed);" parent="1" vertex="1">
          <mxGeometry x="-480" y="2000" width="90" height="50" as="geometry" />
        </mxCell>
        <mxCell id="f3Wuk6wAEYRsW2atSkhv-20" value="ที่เกิดขึ้นในระหว่างการทำงานโปรแกรม" style="text;html=1;align=center;verticalAlign=middle;whiteSpace=wrap;rounded=0;" parent="1" vertex="1">
          <mxGeometry x="315" y="2101.5" width="210" height="30" as="geometry" />
        </mxCell>
        <mxCell id="f3Wuk6wAEYRsW2atSkhv-21" value="อ็อบเจกต์สามารถทำงานเฉพาะด้าน และสามารถนำไปใช้ซ้ำได้" style="text;html=1;align=center;verticalAlign=middle;whiteSpace=wrap;rounded=0;" parent="1" vertex="1">
          <mxGeometry x="320" y="2180" width="210" height="30" as="geometry" />
        </mxCell>
        <mxCell id="f3Wuk6wAEYRsW2atSkhv-23" value="&lt;span style=&quot;font-size: 14px;&quot;&gt;&lt;b&gt;การจัดรูปแบบโครงสร้างของโปรแกรมแบบอ็อบเจกต์&lt;/b&gt;&lt;/span&gt;&lt;div&gt;&lt;span style=&quot;font-size: 14px;&quot;&gt;&lt;b&gt;[Object-Oriented Structure]&lt;/b&gt;&lt;/span&gt;&lt;/div&gt;" style="text;html=1;align=center;verticalAlign=middle;whiteSpace=wrap;rounded=0;" parent="1" vertex="1">
          <mxGeometry x="280" y="2224" width="360" height="30" as="geometry" />
        </mxCell>
        <mxCell id="f3Wuk6wAEYRsW2atSkhv-27" style="edgeStyle=orthogonalEdgeStyle;rounded=0;orthogonalLoop=1;jettySize=auto;html=1;exitX=0.75;exitY=1;exitDx=0;exitDy=0;entryX=0;entryY=0.75;entryDx=0;entryDy=0;" parent="1" source="f3Wuk6wAEYRsW2atSkhv-24" target="f3Wuk6wAEYRsW2atSkhv-26" edge="1">
          <mxGeometry relative="1" as="geometry" />
        </mxCell>
        <mxCell id="f3Wuk6wAEYRsW2atSkhv-24" value="ทำให้ข้อมูลและฟังก์ชันที่จัดการกับข้อมูลอยู่รวมในอ็อบเจกต์เดียวกัน ทำให้ทำงานทุกอย่างง่ายขึ้น&amp;nbsp;" style="text;html=1;align=center;verticalAlign=middle;whiteSpace=wrap;rounded=0;" parent="1" vertex="1">
          <mxGeometry x="330" y="2274" width="210" height="30" as="geometry" />
        </mxCell>
        <mxCell id="f3Wuk6wAEYRsW2atSkhv-25" value="" style="rounded=1;whiteSpace=wrap;html=1;strokeColor=light-dark(#bced07, #ededed);" parent="1" vertex="1">
          <mxGeometry x="637" y="2293" width="190" height="60" as="geometry" />
        </mxCell>
        <mxCell id="f3Wuk6wAEYRsW2atSkhv-26" value="ออกแบบ การพัฒนา แก้ไขข้อผิดพลาด และการนำออบเจกต์ไปใช้งานใหม่" style="text;html=1;align=center;verticalAlign=middle;whiteSpace=wrap;rounded=0;" parent="1" vertex="1">
          <mxGeometry x="627" y="2308" width="210" height="30" as="geometry" />
        </mxCell>
        <mxCell id="j7GxEyaTbJRwKLb1Gbcd-1" value="&lt;b&gt;&lt;font style=&quot;font-size: 14px;&quot;&gt;องค์ประกอบของวัตถุหรืออ็อบเจกต์&lt;/font&gt;&lt;/b&gt;" style="text;html=1;align=center;verticalAlign=middle;whiteSpace=wrap;rounded=0;" parent="1" vertex="1">
          <mxGeometry x="-330" y="2330" width="220" height="30" as="geometry" />
        </mxCell>
        <mxCell id="j7GxEyaTbJRwKLb1Gbcd-3" value="มี 3 องค์" style="text;html=1;align=center;verticalAlign=middle;whiteSpace=wrap;rounded=0;" parent="1" vertex="1">
          <mxGeometry x="-448" y="2282.5" width="70" height="30" as="geometry" />
        </mxCell>
        <mxCell id="j7GxEyaTbJRwKLb1Gbcd-6" value="&lt;b&gt;&lt;font style=&quot;font-size: 14px;&quot;&gt;การสืบทอด/สืบสกุล [Inheritance]&lt;/font&gt;&lt;/b&gt;" style="text;html=1;align=center;verticalAlign=middle;whiteSpace=wrap;rounded=0;" parent="1" vertex="1">
          <mxGeometry x="-410" y="2374" width="140" height="30" as="geometry" />
        </mxCell>
        <mxCell id="j7GxEyaTbJRwKLb1Gbcd-8" value="การที่ออบเจกต์ต่างๆุถูกสร้างในลักษณะสืบทอดจากอ็อบเจกต์หนึ่งในลักษณะ ความสัมพันธ์ แบบอ็อบเจกต์แม่ [Parent Object]" style="text;html=1;align=center;verticalAlign=middle;whiteSpace=wrap;rounded=0;" parent="1" vertex="1">
          <mxGeometry x="-410" y="2420" width="260" height="30" as="geometry" />
        </mxCell>
        <mxCell id="j7GxEyaTbJRwKLb1Gbcd-9" value="และอ็อบเจกค์ลูก [Child Object]" style="text;html=1;align=center;verticalAlign=middle;whiteSpace=wrap;rounded=0;" parent="1" vertex="1">
          <mxGeometry x="-410" y="2460" width="195" height="30" as="geometry" />
        </mxCell>
        <mxCell id="j7GxEyaTbJRwKLb1Gbcd-10" value="&lt;b&gt;&lt;font style=&quot;font-size: 14px;&quot;&gt;การควบคุมการเข้าถึง [Encapsulation] = การห่อหุ้ม&lt;/font&gt;&lt;/b&gt;" style="text;html=1;align=center;verticalAlign=middle;whiteSpace=wrap;rounded=0;" parent="1" vertex="1">
          <mxGeometry x="-410" y="2500" width="200" height="30" as="geometry" />
        </mxCell>
        <mxCell id="cAZsYFTcY9SjIomFiwvT-1" value="การรซ่อนข้อมูลภายในอ็อบเจกต์ [Data Hidimh]" style="text;html=1;align=center;verticalAlign=middle;whiteSpace=wrap;rounded=0;" parent="1" vertex="1">
          <mxGeometry x="-400" y="2540" width="235" height="30" as="geometry" />
        </mxCell>
        <mxCell id="cAZsYFTcY9SjIomFiwvT-5" style="edgeStyle=orthogonalEdgeStyle;rounded=0;orthogonalLoop=1;jettySize=auto;html=1;exitX=0.75;exitY=1;exitDx=0;exitDy=0;entryX=0;entryY=0.5;entryDx=0;entryDy=0;" parent="1" source="cAZsYFTcY9SjIomFiwvT-2" target="j7GxEyaTbJRwKLb1Gbcd-6" edge="1">
          <mxGeometry relative="1" as="geometry" />
        </mxCell>
        <mxCell id="cAZsYFTcY9SjIomFiwvT-2" value="สร้างคลาสใหม่จากคลาสเดิมโดยนำคุรสมบัติ [attribute] และพฤติกรรม [method]" style="text;html=1;align=center;verticalAlign=middle;whiteSpace=wrap;rounded=0;" parent="1" vertex="1">
          <mxGeometry x="-688" y="2338" width="240" height="30" as="geometry" />
        </mxCell>
        <mxCell id="cAZsYFTcY9SjIomFiwvT-7" style="edgeStyle=orthogonalEdgeStyle;rounded=0;orthogonalLoop=1;jettySize=auto;html=1;exitX=1;exitY=0.5;exitDx=0;exitDy=0;entryX=0;entryY=1;entryDx=0;entryDy=0;" parent="1" source="cAZsYFTcY9SjIomFiwvT-6" target="j7GxEyaTbJRwKLb1Gbcd-6" edge="1">
          <mxGeometry relative="1" as="geometry" />
        </mxCell>
        <mxCell id="cAZsYFTcY9SjIomFiwvT-6" value="ใช้ของเดิมเพิ่มใหม่" style="text;html=1;align=center;verticalAlign=middle;whiteSpace=wrap;rounded=0;" parent="1" vertex="1">
          <mxGeometry x="-660" y="2430" width="110" height="30" as="geometry" />
        </mxCell>
        <mxCell id="cAZsYFTcY9SjIomFiwvT-9" style="edgeStyle=orthogonalEdgeStyle;rounded=0;orthogonalLoop=1;jettySize=auto;html=1;exitX=1;exitY=0.5;exitDx=0;exitDy=0;entryX=0;entryY=0.5;entryDx=0;entryDy=0;" parent="1" source="cAZsYFTcY9SjIomFiwvT-8" target="j7GxEyaTbJRwKLb1Gbcd-10" edge="1">
          <mxGeometry relative="1" as="geometry" />
        </mxCell>
        <mxCell id="cAZsYFTcY9SjIomFiwvT-8" value="ป้องกันการเข้าถึงข้อมูลโดยตรง" style="text;html=1;align=center;verticalAlign=middle;whiteSpace=wrap;rounded=0;" parent="1" vertex="1">
          <mxGeometry x="-640" y="2500" width="160" height="30" as="geometry" />
        </mxCell>
        <mxCell id="cAZsYFTcY9SjIomFiwvT-12" value="&lt;b&gt;&lt;font style=&quot;font-size: 14px;&quot;&gt;การกำหนดผลลัพธ์พฤติกรรมที่แตกต่างกันในสภาวะที่ต่างกัน&lt;/font&gt;&lt;/b&gt;&lt;div&gt;&lt;b&gt;&lt;font style=&quot;font-size: 14px;&quot;&gt;[Polymorphism]&lt;/font&gt;&lt;/b&gt;&lt;/div&gt;" style="text;html=1;align=center;verticalAlign=middle;whiteSpace=wrap;rounded=0;" parent="1" vertex="1">
          <mxGeometry x="-413" y="2570" width="410" height="30" as="geometry" />
        </mxCell>
        <mxCell id="cAZsYFTcY9SjIomFiwvT-14" value="" style="edgeStyle=orthogonalEdgeStyle;rounded=0;orthogonalLoop=1;jettySize=auto;html=1;" parent="1" source="cAZsYFTcY9SjIomFiwvT-13" target="cAZsYFTcY9SjIomFiwvT-12" edge="1">
          <mxGeometry relative="1" as="geometry" />
        </mxCell>
        <mxCell id="cAZsYFTcY9SjIomFiwvT-13" value="เมท็อดเดียวทำงานได้หลายแแบบ" style="text;html=1;align=center;verticalAlign=middle;whiteSpace=wrap;rounded=0;" parent="1" vertex="1">
          <mxGeometry x="-675" y="2570" width="175" height="30" as="geometry" />
        </mxCell>
        <mxCell id="cAZsYFTcY9SjIomFiwvT-15" value="" style="shape=stencil(fZbdcgIhDIWfZm8zQAg/17Z9j85U606tdqz9e/tmZ0c0uJ47xP0I5JwEBl59bp8/1kNwn6fj4W39M76ctgM/DCGM++36OJ50NPDjwKvN4bh+PR6+9i/z74/n6ctp9H74nlb4nbmSKZeJCu5vngmZ6jzzNAO7cX8FVKEsBuBKrgKg9oAE8gkCbLeUhEoEQKSUDZDLeWYRKIl8MEDRmHwfyBrBG6Amyu4+kDxxMoB3jhwgYu7TVAsVkFcWCs4CTBEoF4RctKeOxHIf8IXYpikHikAIf+MNUW94AGSSaoAoFIE3AlOyeWU+p2E5S9yfQZcQILVuQOwZdJNoS9Ls3wA5u2XZTIHECqeJ9kDpSaauRiNVcAY1QhdBzeLBli5WazpkSsBLV25uRaqWRyFawTQzRRIQYirJzq5atkBqLfouwqUxLBepthWb10vrWZY6UOAeyKCCtDV625mm9gmUC4Wc3VLJMMIE1BsA2FW9JraVlQB7n3c9oMKhCLEvIM1zBPZ25/umNQ1tVEC2G+fFCC8g398O2hNQuQlVu752DBfA+q0ptnqO5JFmeuIuo9DY7KjY71UxdJV4EntifPWorW++R/dC4t7V3DlIB5cHx2bc7eb3yvX//QNFp+bHDT/+Aw==);lineShape=1;strokeColor=default;" parent="1" vertex="1">
          <mxGeometry x="-293.13203915752433" y="2549.875312458519" width="4.67253977211567" height="4.665236216357243" as="geometry" />
        </mxCell>
        <mxCell id="cAZsYFTcY9SjIomFiwvT-20" value="เป็นการควบคุมพฤติกรรมอ็อบเจกต์ เพื่อให้ได้ผลลัพธืกลับผู้ใช้อย่างมีประสิทธิภาพ" style="text;html=1;align=center;verticalAlign=middle;whiteSpace=wrap;rounded=0;" parent="1" vertex="1">
          <mxGeometry x="-400" y="2609" width="210" height="30" as="geometry" />
        </mxCell>
        <mxCell id="cAZsYFTcY9SjIomFiwvT-21" value="สั่งคำสั่ง CalculateSalary()" style="text;html=1;align=center;verticalAlign=middle;whiteSpace=wrap;rounded=0;" parent="1" vertex="1">
          <mxGeometry x="-600" y="2669" width="90" height="30" as="geometry" />
        </mxCell>
        <mxCell id="cAZsYFTcY9SjIomFiwvT-25" value="เป็นคำสั่งใช้คำนวณเงินเดือนพนักงาน" style="text;html=1;align=center;verticalAlign=middle;whiteSpace=wrap;rounded=0;" parent="1" vertex="1">
          <mxGeometry x="-490" y="2669" width="133" height="30" as="geometry" />
        </mxCell>
        <mxCell id="cAZsYFTcY9SjIomFiwvT-26" value="&lt;b&gt;&lt;font style=&quot;font-size: 14px;&quot;&gt;ความสัมพันระหว่างออบเจกต์ [Object Reiationship]&lt;/font&gt;&lt;/b&gt;" style="text;html=1;align=center;verticalAlign=middle;whiteSpace=wrap;rounded=0;" parent="1" vertex="1">
          <mxGeometry x="260" y="2344" width="220" height="30" as="geometry" />
        </mxCell>
        <mxCell id="cAZsYFTcY9SjIomFiwvT-27" value="Is-A" style="text;html=1;align=center;verticalAlign=middle;whiteSpace=wrap;rounded=0;" parent="1" vertex="1">
          <mxGeometry x="270" y="2390" width="60" height="30" as="geometry" />
        </mxCell>
        <mxCell id="cAZsYFTcY9SjIomFiwvT-28" value="&lt;font&gt;Reiationship&lt;/font&gt;" style="text;html=1;align=center;verticalAlign=middle;whiteSpace=wrap;rounded=0;" parent="1" vertex="1">
          <mxGeometry x="320" y="2390" width="90" height="30" as="geometry" />
        </mxCell>
        <mxCell id="cAZsYFTcY9SjIomFiwvT-32" style="edgeStyle=orthogonalEdgeStyle;rounded=0;orthogonalLoop=1;jettySize=auto;html=1;exitX=0.5;exitY=1;exitDx=0;exitDy=0;entryX=0;entryY=0.5;entryDx=0;entryDy=0;" parent="1" source="cAZsYFTcY9SjIomFiwvT-30" target="cAZsYFTcY9SjIomFiwvT-26" edge="1">
          <mxGeometry relative="1" as="geometry" />
        </mxCell>
        <mxCell id="cAZsYFTcY9SjIomFiwvT-30" value="" style="rounded=1;whiteSpace=wrap;html=1;strokeColor=light-dark(#092fec, #ededed);" parent="1" vertex="1">
          <mxGeometry x="90" y="2298" width="95" height="40" as="geometry" />
        </mxCell>
        <mxCell id="cAZsYFTcY9SjIomFiwvT-31" value="5 ลักษณะ" style="text;html=1;align=center;verticalAlign=middle;whiteSpace=wrap;rounded=0;" parent="1" vertex="1">
          <mxGeometry x="110" y="2303" width="60" height="30" as="geometry" />
        </mxCell>
        <mxCell id="cAZsYFTcY9SjIomFiwvT-33" value="&lt;font&gt;เป็นความสัมพนธ์ที่จัดกลุ่มอ็อบเจกเป้นสมาชิกเครือญาติเดียวกัน&lt;/font&gt;" style="text;html=1;align=center;verticalAlign=middle;whiteSpace=wrap;rounded=0;" parent="1" vertex="1">
          <mxGeometry x="414" y="2400" width="170" height="30" as="geometry" />
        </mxCell>
        <mxCell id="cAZsYFTcY9SjIomFiwvT-35" style="edgeStyle=orthogonalEdgeStyle;rounded=0;orthogonalLoop=1;jettySize=auto;html=1;exitX=0;exitY=0.5;exitDx=0;exitDy=0;entryX=0.75;entryY=0;entryDx=0;entryDy=0;" parent="1" source="cAZsYFTcY9SjIomFiwvT-34" target="cAZsYFTcY9SjIomFiwvT-33" edge="1">
          <mxGeometry relative="1" as="geometry" />
        </mxCell>
        <mxCell id="cAZsYFTcY9SjIomFiwvT-34" value="&lt;font&gt;เป็นความสัมพนธ์แบบ Parent-Child&lt;/font&gt;" style="text;html=1;align=center;verticalAlign=middle;whiteSpace=wrap;rounded=0;" parent="1" vertex="1">
          <mxGeometry x="580" y="2360" width="200" height="30" as="geometry" />
        </mxCell>
        <mxCell id="cAZsYFTcY9SjIomFiwvT-44" style="edgeStyle=orthogonalEdgeStyle;rounded=0;orthogonalLoop=1;jettySize=auto;html=1;exitX=0.5;exitY=1;exitDx=0;exitDy=0;entryX=0.75;entryY=1;entryDx=0;entryDy=0;" parent="1" source="cAZsYFTcY9SjIomFiwvT-36" target="cAZsYFTcY9SjIomFiwvT-39" edge="1">
          <mxGeometry relative="1" as="geometry" />
        </mxCell>
        <mxCell id="cAZsYFTcY9SjIomFiwvT-36" value="&lt;font&gt;สืบทอด สืบสกุล&lt;/font&gt;" style="text;html=1;align=center;verticalAlign=middle;whiteSpace=wrap;rounded=0;" parent="1" vertex="1">
          <mxGeometry x="752" y="2400" width="85" height="30" as="geometry" />
        </mxCell>
        <mxCell id="cAZsYFTcY9SjIomFiwvT-39" value="&lt;font&gt;รถต่างๆเป็น ls-A&lt;/font&gt;" style="text;html=1;align=center;verticalAlign=middle;whiteSpace=wrap;rounded=0;" parent="1" vertex="1">
          <mxGeometry x="660" y="2400" width="85" height="30" as="geometry" />
        </mxCell>
        <mxCell id="cAZsYFTcY9SjIomFiwvT-42" style="edgeStyle=orthogonalEdgeStyle;rounded=0;orthogonalLoop=1;jettySize=auto;html=1;exitX=1;exitY=0.5;exitDx=0;exitDy=0;entryX=0.682;entryY=0;entryDx=0;entryDy=0;entryPerimeter=0;" parent="1" source="cAZsYFTcY9SjIomFiwvT-34" target="cAZsYFTcY9SjIomFiwvT-36" edge="1">
          <mxGeometry relative="1" as="geometry" />
        </mxCell>
        <mxCell id="cAZsYFTcY9SjIomFiwvT-45" value="&lt;font&gt;Reiationship&lt;/font&gt;" style="text;html=1;align=center;verticalAlign=middle;whiteSpace=wrap;rounded=0;" parent="1" vertex="1">
          <mxGeometry x="315" y="2444" width="90" height="30" as="geometry" />
        </mxCell>
        <mxCell id="cAZsYFTcY9SjIomFiwvT-46" value="Has-A" style="text;html=1;align=center;verticalAlign=middle;whiteSpace=wrap;rounded=0;" parent="1" vertex="1">
          <mxGeometry x="275" y="2444" width="40" height="30" as="geometry" />
        </mxCell>
        <mxCell id="cAZsYFTcY9SjIomFiwvT-47" value="&lt;font&gt;ในที่นี่เรียกว่า อ็อบเจกต์ A ประกอบด้วย B และ C&lt;/font&gt;" style="text;html=1;align=center;verticalAlign=middle;whiteSpace=wrap;rounded=0;" parent="1" vertex="1">
          <mxGeometry x="400" y="2455" width="170" height="30" as="geometry" />
        </mxCell>
        <mxCell id="cAZsYFTcY9SjIomFiwvT-53" style="edgeStyle=orthogonalEdgeStyle;rounded=0;orthogonalLoop=1;jettySize=auto;html=1;exitX=1;exitY=0.5;exitDx=0;exitDy=0;entryX=0;entryY=0.5;entryDx=0;entryDy=0;" parent="1" source="cAZsYFTcY9SjIomFiwvT-48" target="cAZsYFTcY9SjIomFiwvT-46" edge="1">
          <mxGeometry relative="1" as="geometry">
            <Array as="points">
              <mxPoint x="185" y="2460" />
            </Array>
          </mxGeometry>
        </mxCell>
        <mxCell id="cAZsYFTcY9SjIomFiwvT-48" value="" style="rounded=1;whiteSpace=wrap;html=1;strokeColor=light-dark(#092fec, #ededed);" parent="1" vertex="1">
          <mxGeometry x="90" y="2440" width="95" height="45" as="geometry" />
        </mxCell>
        <mxCell id="cAZsYFTcY9SjIomFiwvT-52" style="edgeStyle=orthogonalEdgeStyle;rounded=0;orthogonalLoop=1;jettySize=auto;html=1;exitX=0;exitY=0.5;exitDx=0;exitDy=0;entryX=0;entryY=0.25;entryDx=0;entryDy=0;" parent="1" source="cAZsYFTcY9SjIomFiwvT-49" target="cAZsYFTcY9SjIomFiwvT-51" edge="1">
          <mxGeometry relative="1" as="geometry" />
        </mxCell>
        <mxCell id="cAZsYFTcY9SjIomFiwvT-49" value="ดีกรีความสัมพันธ์ระหว่างอ็อบเจกต์&lt;div&gt;[Multiplicity]&lt;/div&gt;" style="text;html=1;align=center;verticalAlign=middle;whiteSpace=wrap;rounded=0;" parent="1" vertex="1">
          <mxGeometry x="90" y="2447.5" width="90" height="30" as="geometry" />
        </mxCell>
        <mxCell id="cAZsYFTcY9SjIomFiwvT-51" value="&lt;font&gt;เป็นการระบุรายละเอียดเพื่อแสดงถึงดีกรีความสัมพันธ์ระหว่างอ็อบเจกต์ว่าสัมพันธ์กันระดับใด เช่น นักเรียน 1 คน สามารถลงทะเบียนเรียนได้หลายวิชา&lt;/font&gt;" style="text;html=1;align=center;verticalAlign=middle;whiteSpace=wrap;rounded=0;" parent="1" vertex="1">
          <mxGeometry x="75" y="2514.42" width="275" height="35.46" as="geometry" />
        </mxCell>
        <mxCell id="cAZsYFTcY9SjIomFiwvT-56" value="" style="rounded=1;whiteSpace=wrap;html=1;strokeColor=light-dark(#092fec, #ededed);" parent="1" vertex="1">
          <mxGeometry x="75" y="2565" width="105" height="40" as="geometry" />
        </mxCell>
        <mxCell id="cAZsYFTcY9SjIomFiwvT-60" style="edgeStyle=orthogonalEdgeStyle;rounded=0;orthogonalLoop=1;jettySize=auto;html=1;exitX=0;exitY=0.75;exitDx=0;exitDy=0;entryX=0;entryY=0.5;entryDx=0;entryDy=0;" parent="1" source="cAZsYFTcY9SjIomFiwvT-58" target="cAZsYFTcY9SjIomFiwvT-59" edge="1">
          <mxGeometry relative="1" as="geometry" />
        </mxCell>
        <mxCell id="cAZsYFTcY9SjIomFiwvT-58" value="เส้นทางความสัมพันธ์&lt;div&gt;[Navigability]&lt;/div&gt;" style="text;html=1;align=center;verticalAlign=middle;whiteSpace=wrap;rounded=0;" parent="1" vertex="1">
          <mxGeometry x="70" y="2570" width="115" height="30" as="geometry" />
        </mxCell>
        <mxCell id="cAZsYFTcY9SjIomFiwvT-59" value="แสดงความสัมพนธ์ระหว่างอ็อบเจกต์" style="text;html=1;align=center;verticalAlign=middle;whiteSpace=wrap;rounded=0;" parent="1" vertex="1">
          <mxGeometry x="100" y="2603.54" width="180" height="35.46" as="geometry" />
        </mxCell>
        <mxCell id="cAZsYFTcY9SjIomFiwvT-61" value="" style="rounded=1;whiteSpace=wrap;html=1;strokeColor=light-dark(#092fec, #ededed);" parent="1" vertex="1">
          <mxGeometry x="85" y="2644" width="95" height="40" as="geometry" />
        </mxCell>
        <mxCell id="cAZsYFTcY9SjIomFiwvT-62" value="ชนิดความสัมพันธ์&lt;div&gt;[Type]&lt;/div&gt;" style="text;html=1;align=center;verticalAlign=middle;whiteSpace=wrap;rounded=0;" parent="1" vertex="1">
          <mxGeometry x="75" y="2649" width="115" height="30" as="geometry" />
        </mxCell>
        <mxCell id="cAZsYFTcY9SjIomFiwvT-65" style="edgeStyle=orthogonalEdgeStyle;rounded=0;orthogonalLoop=1;jettySize=auto;html=1;exitX=0;exitY=0.5;exitDx=0;exitDy=0;entryX=0;entryY=0.5;entryDx=0;entryDy=0;" parent="1" source="cAZsYFTcY9SjIomFiwvT-63" target="cAZsYFTcY9SjIomFiwvT-62" edge="1">
          <mxGeometry relative="1" as="geometry" />
        </mxCell>
        <mxCell id="cAZsYFTcY9SjIomFiwvT-63" value="การจำแนกดีกรี สัมพันธืแบบแนบแน่น [Strong Reiationship]&amp;nbsp; ไม่แนบแน่น [Weak Reiationship]" style="text;html=1;align=center;verticalAlign=middle;whiteSpace=wrap;rounded=0;" parent="1" vertex="1">
          <mxGeometry x="100" y="2684" width="310" height="35.46" as="geometry" />
        </mxCell>
        <mxCell id="L5u4rSv5TlfOAiqTEjf0-1" value="แบบ Association" style="text;html=1;align=center;verticalAlign=middle;whiteSpace=wrap;rounded=0;" parent="1" vertex="1">
          <mxGeometry x="364" y="2500" width="100" height="30" as="geometry" />
        </mxCell>
        <mxCell id="L5u4rSv5TlfOAiqTEjf0-2" value="สัมพันธ์ของออบเจกต แสดงบทบาทที่เกี่ยวข้องระหว่างกัน&amp;nbsp;" style="text;html=1;align=center;verticalAlign=middle;whiteSpace=wrap;rounded=0;" parent="1" vertex="1">
          <mxGeometry x="464" y="2510" width="150" height="30" as="geometry" />
        </mxCell>
        <mxCell id="L5u4rSv5TlfOAiqTEjf0-3" value="แบบ Composition" style="text;html=1;align=center;verticalAlign=middle;whiteSpace=wrap;rounded=0;" parent="1" vertex="1">
          <mxGeometry x="365" y="2564" width="100" height="30" as="geometry" />
        </mxCell>
        <mxCell id="L5u4rSv5TlfOAiqTEjf0-4" value="สัมพันธ์ผูกติดกันและกัน&amp;nbsp;" style="text;html=1;align=center;verticalAlign=middle;whiteSpace=wrap;rounded=0;" parent="1" vertex="1">
          <mxGeometry x="464" y="2564" width="130" height="30" as="geometry" />
        </mxCell>
        <mxCell id="L5u4rSv5TlfOAiqTEjf0-5" value="แบบ ggregation" style="text;html=1;align=center;verticalAlign=middle;whiteSpace=wrap;rounded=0;" parent="1" vertex="1">
          <mxGeometry x="360" y="2624" width="100" height="30" as="geometry" />
        </mxCell>
      </root>
    </mxGraphModel>
  </diagram>
</mxfile>
